<?xml version="1.0" encoding="UTF-8"?>
<!DOCTYPE svg PUBLIC "-//W3C//DTD SVG 1.1//EN" "http://www.w3.org/Graphics/SVG/1.1/DTD/svg11.dtd">
<svg xmlns="http://www.w3.org/2000/svg" version="1.1" width="476px" height="497px" style="shape-rendering:geometricPrecision; text-rendering:geometricPrecision; image-rendering:optimizeQuality; fill-rule:evenodd; clip-rule:evenodd" xmlns:xlink="http://www.w3.org/1999/xlink">
<g><path style="opacity:1" fill="#fefefe" d="M -0.5,-0.5 C 158.167,-0.5 316.833,-0.5 475.5,-0.5C 475.5,165.167 475.5,330.833 475.5,496.5C 316.833,496.5 158.167,496.5 -0.5,496.5C -0.5,330.833 -0.5,165.167 -0.5,-0.5 Z"/></g>
<g><path style="opacity:1" fill="#50635a" d="M 253.5,31.5 C 239.153,31.3963 224.82,31.7296 210.5,32.5C 218.95,31.0089 227.617,30.3422 236.5,30.5C 242.343,30.5005 248.01,30.8339 253.5,31.5 Z"/></g>
<g><path style="opacity:1" fill="#102b3a" d="M 253.5,31.5 C 312.603,37.3005 361.77,62.3005 401,106.5C 448.564,166.124 461.898,232.791 441,306.5C 437.798,315.271 434.298,323.937 430.5,332.5C 428.952,332.821 428.285,333.821 428.5,335.5C 426.799,335.034 425.299,335.034 424,335.5C 423.209,338.959 422.209,342.293 421,345.5C 420.503,343.19 420.337,340.857 420.5,338.5C 418.833,338.5 417.167,338.5 415.5,338.5C 415.5,337.5 415.5,336.5 415.5,335.5C 416.5,335.5 417.5,335.5 418.5,335.5C 418.5,334.5 418.5,333.5 418.5,332.5C 420.199,332.66 421.866,332.494 423.5,332C 421.106,329.195 420.439,326.028 421.5,322.5C 420.975,321.808 420.308,321.308 419.5,321C 420.774,320.023 420.774,319.189 419.5,318.5C 421.081,316.858 421.747,314.858 421.5,312.5C 421.872,308.628 422.872,304.961 424.5,301.5C 428.773,293.822 430.773,285.489 430.5,276.5C 432.602,269.45 433.602,262.117 433.5,254.5C 433.618,242.15 433.285,229.817 432.5,217.5C 433.069,213.671 432.402,210.337 430.5,207.5C 430.795,205.265 430.461,203.265 429.5,201.5C 428.479,196.749 427.145,192.082 425.5,187.5C 425.326,185.139 424.993,182.806 424.5,180.5C 422.841,175.177 421.174,169.844 419.5,164.5C 418.583,163.873 417.583,163.539 416.5,163.5C 413.754,157.01 410.754,150.677 407.5,144.5C 404.075,139.314 400.408,134.314 396.5,129.5C 394.638,125.458 392.138,121.792 389,118.5C 370.884,98.8521 350.384,82.5187 327.5,69.5C 328.953,68.1751 328.619,67.3418 326.5,67C 327.711,66.1072 327.711,65.2739 326.5,64.5C 321.77,65.6584 317.437,64.6584 313.5,61.5C 311.547,60.8444 309.547,60.5111 307.5,60.5C 307.167,60.5 306.833,60.5 306.5,60.5C 303.808,57.8193 300.475,56.4859 296.5,56.5C 291.125,53.1441 285.125,51.4774 278.5,51.5C 273.167,51.5 267.833,51.5 262.5,51.5C 240.5,51.5 218.5,51.5 196.5,51.5C 196.611,50.8826 196.944,50.3826 197.5,50C 212.827,49.1797 228.16,48.5131 243.5,48C 244.167,47.6667 244.833,47.3333 245.5,47C 240.167,46.6667 234.833,46.3333 229.5,46C 232.854,45.5448 236.187,45.0448 239.5,44.5C 239.421,43.0695 239.754,41.7362 240.5,40.5C 238.333,40.1667 236.167,39.8333 234,39.5C 231.375,39.5812 229.041,40.2478 227,41.5C 224.617,40.2343 221.95,39.5676 219,39.5C 215.559,39.2626 212.393,39.9293 209.5,41.5C 208.548,39.9547 208.215,38.288 208.5,36.5C 207.209,36.7373 206.209,36.404 205.5,35.5C 207.664,35.2785 209.33,34.2785 210.5,32.5C 224.82,31.7296 239.153,31.3963 253.5,31.5 Z"/></g>
<g><path style="opacity:1" fill="#193038" d="M 210.5,32.5 C 209.33,34.2785 207.664,35.2785 205.5,35.5C 203.914,36.1481 202.247,36.6481 200.5,37C 201.654,37.9138 201.487,38.7471 200,39.5C 199.517,38.552 199.351,37.552 199.5,36.5C 198.127,36.3433 196.793,36.51 195.5,37C 198.028,37.9978 198.028,38.8311 195.5,39.5C 194.311,39.2444 193.144,38.9111 192,38.5C 188.206,39.2297 184.373,39.7297 180.5,40C 180.957,40.414 181.291,40.914 181.5,41.5C 176.818,42.2679 172.151,43.1013 167.5,44C 166.027,44.7096 165.36,45.8762 165.5,47.5C 157.329,46.6861 151.663,50.0195 148.5,57.5C 147.914,57.2907 147.414,56.9574 147,56.5C 140.135,57.7557 133.635,59.7557 127.5,62.5C 152.596,45.7978 180.263,35.7978 210.5,32.5 Z"/></g>
<g><path style="opacity:1" fill="#7afb84" d="M 262.5,51.5 C 267.833,51.5 273.167,51.5 278.5,51.5C 278.5,51.8333 278.5,52.1667 278.5,52.5C 273.434,52.3399 268.434,52.8399 263.5,54C 262.663,55.0113 262.33,56.1779 262.5,57.5C 264.483,57.1568 265.817,57.8235 266.5,59.5C 238.833,59.5 211.167,59.5 183.5,59.5C 183.33,58.1779 183.663,57.0113 184.5,56C 186.5,55.3333 188.5,54.6667 190.5,54C 214.167,53.6667 237.833,53.3333 261.5,53C 262.056,52.6174 262.389,52.1174 262.5,51.5 Z"/></g>
<g><path style="opacity:1" fill="#235d22" d="M 278.5,52.5 C 278.5,52.1667 278.5,51.8333 278.5,51.5C 285.125,51.4774 291.125,53.1441 296.5,56.5C 291.542,55.2917 286.542,54.2917 281.5,53.5C 280.791,52.596 279.791,52.2627 278.5,52.5 Z"/></g>
<g><path style="opacity:1" fill="#69f50a" d="M 281.5,53.5 C 286.542,54.2917 291.542,55.2917 296.5,56.5C 299.318,58.0722 302.318,59.4055 305.5,60.5C 306.999,62.4529 306.665,64.1196 304.5,65.5C 301.911,66.205 299.244,66.205 296.5,65.5C 296.167,65.5 295.833,65.5 295.5,65.5C 292.916,63.5275 289.916,62.5275 286.5,62.5C 285.5,62.5 284.5,62.5 283.5,62.5C 281.317,60.7657 278.65,59.7657 275.5,59.5C 273.599,58.065 273.266,56.3983 274.5,54.5C 276.743,53.5258 279.076,53.1924 281.5,53.5 Z"/></g>
<g><path style="opacity:1" fill="#6bf24f" d="M 278.5,52.5 C 279.791,52.2627 280.791,52.596 281.5,53.5C 279.076,53.1924 276.743,53.5258 274.5,54.5C 273.266,56.3983 273.599,58.065 275.5,59.5C 278.65,59.7657 281.317,60.7657 283.5,62.5C 280.518,62.0371 277.518,61.7038 274.5,61.5C 274.158,60.6618 273.492,60.3284 272.5,60.5C 270.735,59.5386 268.735,59.2053 266.5,59.5C 265.817,57.8235 264.483,57.1568 262.5,57.5C 262.33,56.1779 262.663,55.0113 263.5,54C 268.434,52.8399 273.434,52.3399 278.5,52.5 Z"/></g>
<g><path style="opacity:1" fill="#10352c" d="M 183.5,54.5 C 179.619,56.4693 175.619,58.1359 171.5,59.5C 169.517,59.1568 168.183,59.8235 167.5,61.5C 166.209,60.4583 166.209,59.2917 167.5,58C 172.779,56.5132 178.112,55.3465 183.5,54.5 Z"/></g>
<g><path style="opacity:1" fill="#245e23" d="M 296.5,56.5 C 300.475,56.4859 303.808,57.8193 306.5,60.5C 306.167,60.5 305.833,60.5 305.5,60.5C 302.318,59.4055 299.318,58.0722 296.5,56.5 Z"/></g>
<g><path style="opacity:1" fill="#82e995" d="M 196.5,51.5 C 218.5,51.5 240.5,51.5 262.5,51.5C 262.389,52.1174 262.056,52.6174 261.5,53C 237.833,53.3333 214.167,53.6667 190.5,54C 188.5,54.6667 186.5,55.3333 184.5,56C 183.663,57.0113 183.33,58.1779 183.5,59.5C 211.167,59.5 238.833,59.5 266.5,59.5C 268.735,59.2053 270.735,59.5386 272.5,60.5C 238.663,60.8316 204.996,60.4983 171.5,59.5C 175.619,58.1359 179.619,56.4693 183.5,54.5C 187.793,53.3436 192.126,52.3436 196.5,51.5 Z"/></g>
<g><path style="opacity:1" fill="#407f5c" d="M 171.5,59.5 C 204.996,60.4983 238.663,60.8316 272.5,60.5C 273.492,60.3284 274.158,60.6618 274.5,61.5C 238.833,61.5 203.167,61.5 167.5,61.5C 168.183,59.8235 169.517,59.1568 171.5,59.5 Z"/></g>
<g><path style="opacity:1" fill="#0d2d33" d="M 167.5,61.5 C 203.167,61.5 238.833,61.5 274.5,61.5C 277.518,61.7038 280.518,62.0371 283.5,62.5C 284.5,62.5 285.5,62.5 286.5,62.5C 287.5,63.1667 288.5,63.8333 289.5,64.5C 270.379,62.3752 251.212,62.0419 232,63.5C 210.342,62.8829 188.842,62.2163 167.5,61.5 Z"/></g>
<g><path style="opacity:1" fill="#4aa521" d="M 286.5,62.5 C 289.916,62.5275 292.916,63.5275 295.5,65.5C 293.784,65.3713 292.117,65.038 290.5,64.5C 290.167,64.5 289.833,64.5 289.5,64.5C 288.5,63.8333 287.5,63.1667 286.5,62.5 Z"/></g>
<g><path style="opacity:1" fill="#52b912" d="M 305.5,60.5 C 305.833,60.5 306.167,60.5 306.5,60.5C 306.833,60.5 307.167,60.5 307.5,60.5C 308.514,61.6737 309.847,62.3404 311.5,62.5C 311.904,63.7564 312.571,64.9231 313.5,66C 313.265,66.8732 312.931,67.7065 312.5,68.5C 310.282,69.0574 307.949,69.0574 305.5,68.5C 302.189,68.117 299.189,67.117 296.5,65.5C 299.244,66.205 301.911,66.205 304.5,65.5C 306.665,64.1196 306.999,62.4529 305.5,60.5 Z"/></g>
<g><path style="opacity:1" fill="#153734" d="M 307.5,60.5 C 309.547,60.5111 311.547,60.8444 313.5,61.5C 317.437,64.6584 321.77,65.6584 326.5,64.5C 327.711,65.2739 327.711,66.1072 326.5,67C 328.619,67.3418 328.953,68.1751 327.5,69.5C 324.382,68.4413 321.382,67.1079 318.5,65.5C 316.046,64.7729 313.713,63.7729 311.5,62.5C 309.847,62.3404 308.514,61.6737 307.5,60.5 Z"/></g>
<g><path style="opacity:1" fill="#0f2f31" d="M 290.5,64.5 C 292.117,65.038 293.784,65.3713 295.5,65.5C 295.833,65.5 296.167,65.5 296.5,65.5C 299.189,67.117 302.189,68.117 305.5,68.5C 305.5,68.8333 305.5,69.1667 305.5,69.5C 301.01,68.9027 298.01,70.5694 296.5,74.5C 292.019,74.5745 287.686,73.9079 283.5,72.5C 283.5,72.1667 283.5,71.8333 283.5,71.5C 286.247,71.8134 288.914,71.48 291.5,70.5C 292.311,69.7836 292.978,68.9503 293.5,68C 292.456,66.8261 291.456,65.6594 290.5,64.5 Z"/></g>
<g><path style="opacity:1" fill="#46a023" d="M 311.5,62.5 C 313.713,63.7729 316.046,64.7729 318.5,65.5C 318.369,66.2389 318.536,66.9056 319,67.5C 320.973,68.6399 322.807,69.9733 324.5,71.5C 320.904,72.0791 317.238,72.0791 313.5,71.5C 310.67,71.3059 308.004,70.6392 305.5,69.5C 305.5,69.1667 305.5,68.8333 305.5,68.5C 307.949,69.0574 310.282,69.0574 312.5,68.5C 312.931,67.7065 313.265,66.8732 313.5,66C 312.571,64.9231 311.904,63.7564 311.5,62.5 Z"/></g>
<g><path style="opacity:1" fill="#40813a" d="M 318.5,65.5 C 321.382,67.1079 324.382,68.4413 327.5,69.5C 350.384,82.5187 370.884,98.8521 389,118.5C 392.138,121.792 394.638,125.458 396.5,129.5C 394.409,130.865 392.076,131.532 389.5,131.5C 389.878,133.921 390.545,136.254 391.5,138.5C 371.027,109.691 345.027,87.3573 313.5,71.5C 317.238,72.0791 320.904,72.0791 324.5,71.5C 322.807,69.9733 320.973,68.6399 319,67.5C 318.536,66.9056 318.369,66.2389 318.5,65.5 Z"/></g>
<g><path style="opacity:1" fill="#0f2939" d="M 205.5,35.5 C 206.209,36.404 207.209,36.7373 208.5,36.5C 208.215,38.288 208.548,39.9547 209.5,41.5C 212.393,39.9293 215.559,39.2626 219,39.5C 221.95,39.5676 224.617,40.2343 227,41.5C 229.041,40.2478 231.375,39.5812 234,39.5C 236.167,39.8333 238.333,40.1667 240.5,40.5C 239.754,41.7362 239.421,43.0695 239.5,44.5C 236.187,45.0448 232.854,45.5448 229.5,46C 234.833,46.3333 240.167,46.6667 245.5,47C 244.833,47.3333 244.167,47.6667 243.5,48C 228.16,48.5131 212.827,49.1797 197.5,50C 196.944,50.3826 196.611,50.8826 196.5,51.5C 192.126,52.3436 187.793,53.3436 183.5,54.5C 178.112,55.3465 172.779,56.5132 167.5,58C 166.209,59.2917 166.209,60.4583 167.5,61.5C 188.842,62.2163 210.342,62.8829 232,63.5C 251.212,62.0419 270.379,62.3752 289.5,64.5C 289.833,64.5 290.167,64.5 290.5,64.5C 291.456,65.6594 292.456,66.8261 293.5,68C 292.978,68.9503 292.311,69.7836 291.5,70.5C 288.914,71.48 286.247,71.8134 283.5,71.5C 236.165,71.3333 188.832,71.5 141.5,72C 140.748,72.6708 140.414,73.5041 140.5,74.5C 138.887,75.6923 137.22,76.6923 135.5,77.5C 132.883,78.7859 130.55,80.4525 128.5,82.5C 182.332,83.3328 236.332,83.8328 290.5,84C 298.508,85.1439 304.508,88.9772 308.5,95.5C 312.684,103.838 317.851,104.505 324,97.5C 326.061,90.9542 323.894,86.6209 317.5,84.5C 314.524,82.6789 311.524,80.6789 308.5,78.5C 310.382,78.8454 312.382,78.3454 314.5,77C 308.294,76.9007 302.294,76.0674 296.5,74.5C 298.01,70.5694 301.01,68.9027 305.5,69.5C 308.004,70.6392 310.67,71.3059 313.5,71.5C 345.027,87.3573 371.027,109.691 391.5,138.5C 393.692,141.55 395.358,144.883 396.5,148.5C 397.235,153.538 399.568,157.538 403.5,160.5C 403.031,163.393 404.031,165.393 406.5,166.5C 407.677,168.679 408.677,171.013 409.5,173.5C 409.259,175.898 409.926,177.898 411.5,179.5C 412.06,181.801 412.56,184.134 413,186.5C 413.383,187.056 413.883,187.389 414.5,187.5C 414.5,187.833 414.5,188.167 414.5,188.5C 414.5,189.833 414.5,191.167 414.5,192.5C 413.88,196.302 414.714,199.635 417,202.5C 417.183,205.365 417.683,208.031 418.5,210.5C 418.927,213.01 419.593,215.343 420.5,217.5C 421.114,221.135 421.448,224.802 421.5,228.5C 421.633,241.516 421.299,254.516 420.5,267.5C 420.167,270.167 419.833,272.833 419.5,275.5C 418.076,277.515 417.41,279.848 417.5,282.5C 415.656,286.862 414.656,291.529 414.5,296.5C 414.5,296.833 414.5,297.167 414.5,297.5C 413.168,299.132 411.835,300.799 410.5,302.5C 409.526,304.743 409.192,307.076 409.5,309.5C 409.405,311.786 408.738,313.786 407.5,315.5C 405.583,316.116 404.416,317.45 404,319.5C 403.667,318.167 403.333,316.833 403,315.5C 402.667,315.833 402.333,316.167 402,316.5C 398.506,314.623 394.673,313.956 390.5,314.5C 390.5,318.5 390.5,322.5 390.5,326.5C 387.833,326.5 385.167,326.5 382.5,326.5C 382.799,324.396 382.466,322.396 381.5,320.5C 380.511,324.107 380.177,327.774 380.5,331.5C 379.5,331.5 378.5,331.5 377.5,331.5C 377.264,329.027 375.931,327.36 373.5,326.5C 366.045,326.623 363.045,322.956 364.5,315.5C 362.833,315.5 361.167,315.5 359.5,315.5C 359.5,316.5 359.5,317.5 359.5,318.5C 357.833,318.5 356.167,318.5 354.5,318.5C 351.738,317.62 349.071,316.454 346.5,315C 333.602,307.392 320.935,299.559 308.5,291.5C 307.432,290.566 306.099,290.232 304.5,290.5C 305.127,300.926 304.46,311.093 302.5,321C 221.666,321.167 140.999,321.667 60.5,322.5C 61.3795,326.036 62.7128,329.369 64.5,332.5C 64.5,333.167 64.8333,333.5 65.5,333.5C 132.833,334.167 200.167,334.833 267.5,335.5C 263.701,338.504 259.368,340.67 254.5,342C 192.763,342.165 131.763,342.665 71.5,343.5C 72.6808,346.025 74.0142,348.525 75.5,351C 152.499,351.5 229.499,351.667 306.5,351.5C 305.862,360.895 306.529,369.895 308.5,378.5C 310.861,378.326 313.194,377.993 315.5,377.5C 315.5,376.5 315.5,375.5 315.5,374.5C 317.06,374.481 318.56,374.148 320,373.5C 322.184,376.457 323.351,376.123 323.5,372.5C 326.813,370.043 330.813,367.376 335.5,364.5C 336.935,366.401 338.602,366.734 340.5,365.5C 342.131,363.78 343.297,361.78 344,359.5C 344.75,358.874 345.584,358.374 346.5,358C 352.491,357.501 358.491,357.334 364.5,357.5C 364.286,355.856 364.62,354.356 365.5,353C 367.473,352.505 369.473,352.338 371.5,352.5C 371.5,354.167 371.5,355.833 371.5,357.5C 373.167,357.5 374.833,357.5 376.5,357.5C 377.358,362.701 375.358,366.201 370.5,368C 370.966,369.299 370.966,370.799 370.5,372.5C 352.675,392.002 332.008,407.669 308.5,419.5C 307.209,419.263 306.209,419.596 305.5,420.5C 302.433,421.683 299.433,423.017 296.5,424.5C 294.236,425.219 291.903,425.552 289.5,425.5C 284.74,425.513 280.074,426.18 275.5,427.5C 241.669,428.167 208.002,428.833 174.5,429.5C 174.378,430.707 175.378,431.374 177.5,431.5C 178.209,432.404 179.209,432.737 180.5,432.5C 183.648,435.926 187.648,437.259 192.5,436.5C 192.414,437.496 192.748,438.329 193.5,439C 219.458,441.663 245.458,442.163 271.5,440.5C 273.527,440.338 275.527,440.505 277.5,441C 274.048,442.289 272.381,444.789 272.5,448.5C 272.649,450.32 273.316,451.82 274.5,453C 273.584,453.278 272.918,453.778 272.5,454.5C 272.5,454.833 272.5,455.167 272.5,455.5C 184.395,465.853 114.561,435.186 63,363.5C 17.9061,292.629 13.5728,219.296 50,143.5C 68.1991,109.136 94.0324,82.1355 127.5,62.5C 133.635,59.7557 140.135,57.7557 147,56.5C 147.414,56.9574 147.914,57.2907 148.5,57.5C 151.663,50.0195 157.329,46.6861 165.5,47.5C 165.36,45.8762 166.027,44.7096 167.5,44C 172.151,43.1013 176.818,42.2679 181.5,41.5C 181.291,40.914 180.957,40.414 180.5,40C 184.373,39.7297 188.206,39.2297 192,38.5C 193.144,38.9111 194.311,39.2444 195.5,39.5C 198.028,38.8311 198.028,37.9978 195.5,37C 196.793,36.51 198.127,36.3433 199.5,36.5C 199.351,37.552 199.517,38.552 200,39.5C 201.487,38.7471 201.654,37.9138 200.5,37C 202.247,36.6481 203.914,36.1481 205.5,35.5 Z"/></g>
<g><path style="opacity:1" fill="#f2f8f6" d="M 312.5,84.5 C 314.167,84.5 315.833,84.5 317.5,84.5C 323.894,86.6209 326.061,90.9542 324,97.5C 317.851,104.505 312.684,103.838 308.5,95.5C 308.5,93.8333 308.5,92.1667 308.5,90.5C 310.252,88.7541 311.585,86.7541 312.5,84.5 Z"/></g>
<g><path style="opacity:1" fill="#174232" d="M 128.5,82.5 C 182.167,82.5 235.833,82.5 289.5,82.5C 291.199,82.3398 292.866,82.5065 294.5,83C 299.541,84.8917 304.208,87.3917 308.5,90.5C 308.5,92.1667 308.5,93.8333 308.5,95.5C 304.508,88.9772 298.508,85.1439 290.5,84C 236.332,83.8328 182.332,83.3328 128.5,82.5 Z"/></g>
<g><path style="opacity:1" fill="#69bb6f" d="M 135.5,77.5 C 134.71,78.7942 133.71,79.9609 132.5,81C 146.496,81.4999 160.496,81.6666 174.5,81.5C 213.004,81.1681 251.337,81.5015 289.5,82.5C 235.833,82.5 182.167,82.5 128.5,82.5C 130.55,80.4525 132.883,78.7859 135.5,77.5 Z"/></g>
<g><path style="opacity:1" fill="#143638" d="M 296.5,74.5 C 302.294,76.0674 308.294,76.9007 314.5,77C 312.382,78.3454 310.382,78.8454 308.5,78.5C 311.524,80.6789 314.524,82.6789 317.5,84.5C 315.833,84.5 314.167,84.5 312.5,84.5C 307.47,80.6533 302.137,77.32 296.5,74.5 Z"/></g>
<g><path style="opacity:1" fill="#8bf2a7" d="M 143.5,73.5 C 189.997,72.5012 236.664,72.1679 283.5,72.5C 287.686,73.9079 292.019,74.5745 296.5,74.5C 302.137,77.32 307.47,80.6533 312.5,84.5C 311.585,86.7541 310.252,88.7541 308.5,90.5C 304.208,87.3917 299.541,84.8917 294.5,83C 292.866,82.5065 291.199,82.3398 289.5,82.5C 251.337,81.5015 213.004,81.1681 174.5,81.5C 183.009,80.8334 191.676,80.1667 200.5,79.5C 203.785,77.2797 207.451,76.113 211.5,76C 210.5,75.6667 209.5,75.3333 208.5,75C 186.832,74.4922 165.165,73.9922 143.5,73.5 Z"/></g>
<g><path style="opacity:1" fill="#84f89e" d="M 143.5,73.5 C 165.165,73.9922 186.832,74.4922 208.5,75C 209.5,75.3333 210.5,75.6667 211.5,76C 207.451,76.113 203.785,77.2797 200.5,79.5C 191.676,80.1667 183.009,80.8334 174.5,81.5C 160.496,81.6666 146.496,81.4999 132.5,81C 133.71,79.9609 134.71,78.7942 135.5,77.5C 137.22,76.6923 138.887,75.6923 140.5,74.5C 141.391,73.8902 142.391,73.5569 143.5,73.5 Z"/></g>
<g><path style="opacity:1" fill="#2e6358" d="M 283.5,71.5 C 283.5,71.8333 283.5,72.1667 283.5,72.5C 236.664,72.1679 189.997,72.5012 143.5,73.5C 142.391,73.5569 141.391,73.8902 140.5,74.5C 140.414,73.5041 140.748,72.6708 141.5,72C 188.832,71.5 236.165,71.3333 283.5,71.5 Z"/></g>
<g><path style="opacity:1" fill="#153d31" d="M 271.5,92.5 C 267.434,92.307 263.434,92.6403 259.5,93.5C 210.162,93.1667 160.829,93.5001 111.5,94.5C 110.812,95.8549 109.812,96.8549 108.5,97.5C 109.63,95.6854 110.296,93.6854 110.5,91.5C 164.336,91.1677 218.003,91.501 271.5,92.5 Z"/></g>
<g><path style="opacity:1" fill="#4ebb07" d="M 273.5,95.5 C 273.833,95.5 274.167,95.5 274.5,95.5C 277.199,105.139 273.532,109.139 263.5,107.5C 260.663,103.998 259.33,99.9983 259.5,95.5C 264.191,94.3274 268.858,94.3274 273.5,95.5 Z"/></g>
<g><path style="opacity:1" fill="#42883f" d="M 259.5,93.5 C 258.612,96.0545 258.279,98.7212 258.5,101.5C 206.997,101.832 155.664,101.499 104.5,100.5C 105.262,98.7376 106.596,97.7376 108.5,97.5C 109.812,96.8549 110.812,95.8549 111.5,94.5C 160.829,93.5001 210.162,93.1667 259.5,93.5 Z"/></g>
<g><path style="opacity:1" fill="#418e31" d="M 112.5,94.5 C 153.835,94.3333 195.168,94.5 236.5,95C 234.167,95.3333 231.833,95.6667 229.5,96C 232.226,96.1816 234.893,96.6816 237.5,97.5C 237.291,98.086 236.957,98.586 236.5,99C 194.516,100.576 152.516,100.91 110.5,100C 110.167,99.6667 109.833,99.3333 109.5,99C 111.141,97.871 112.141,96.371 112.5,94.5 Z"/></g>
<g><path style="opacity:1" fill="#4ba62c" d="M 271.5,92.5 C 272.167,93.5 272.833,94.5 273.5,95.5C 268.858,94.3274 264.191,94.3274 259.5,95.5C 259.33,99.9983 260.663,103.998 263.5,107.5C 261.521,106.188 259.855,104.521 258.5,102.5C 258.5,102.167 258.5,101.833 258.5,101.5C 258.279,98.7212 258.612,96.0545 259.5,93.5C 263.434,92.6403 267.434,92.307 271.5,92.5 Z"/></g>
<g><path style="opacity:1" fill="#1a4a38" d="M 104.5,100.5 C 155.664,101.499 206.997,101.832 258.5,101.5C 258.5,101.833 258.5,102.167 258.5,102.5C 206.664,102.832 154.997,102.499 103.5,101.5C 103.5,100.833 103.833,100.5 104.5,100.5 Z"/></g>
<g><path style="opacity:1" fill="#0b2f32" d="M 103.5,101.5 C 154.997,102.499 206.664,102.832 258.5,102.5C 259.855,104.521 261.521,106.188 263.5,107.5C 265.948,108.473 268.615,108.806 271.5,108.5C 267.572,109.838 263.572,111.171 259.5,112.5C 256.71,110.667 257.043,109.667 260.5,109.5C 259.833,107.5 259.167,105.5 258.5,103.5C 206.496,103.833 154.496,103.5 102.5,102.5C 102.624,101.893 102.957,101.56 103.5,101.5 Z"/></g>
<g><path style="opacity:1" fill="#2c6534" d="M 274.5,95.5 C 275.117,95.6107 275.617,95.944 276,96.5C 276.667,99.5 276.667,102.5 276,105.5C 274.871,107.141 273.371,108.141 271.5,108.5C 268.615,108.806 265.948,108.473 263.5,107.5C 273.532,109.139 277.199,105.139 274.5,95.5 Z"/></g>
<g><path style="opacity:1" fill="#0a2d2e" d="M 210.5,110.5 C 210.5,110.833 210.5,111.167 210.5,111.5C 173.498,111.333 136.498,111.5 99.5,112C 97.5,112.333 95.5,112.667 93.5,113C 92.2949,114.376 90.9616,115.542 89.5,116.5C 89.703,114.362 90.703,112.695 92.5,111.5C 131.828,110.5 171.161,110.167 210.5,110.5 Z"/></g>
<g><path style="opacity:1" fill="#5fcf25" d="M 121.5,112.5 C 150.833,112.5 180.167,112.5 209.5,112.5C 209.5,115.167 209.5,117.833 209.5,120.5C 209.167,120.5 208.833,120.5 208.5,120.5C 208.5,118.167 208.5,115.833 208.5,113.5C 179.826,113.167 151.159,113.5 122.5,114.5C 121.5,115.833 120.5,117.167 119.5,118.5C 119.863,119.183 120.196,119.85 120.5,120.5C 117.303,119.888 115.969,117.888 116.5,114.5C 118.099,114.768 119.432,114.434 120.5,113.5C 121.167,113.5 121.5,113.167 121.5,112.5 Z"/></g>
<g><path style="opacity:1" fill="#fbfdfc" d="M 308.5,110.5 C 332.031,123.093 355.031,136.426 377.5,150.5C 373.366,151.485 369.032,151.818 364.5,151.5C 338.831,151.667 313.165,151.5 287.5,151C 285.431,149.477 283.097,148.643 280.5,148.5C 209.665,148.833 138.998,148.499 68.5,147.5C 68.5,146.833 68.8333,146.5 69.5,146.5C 72.5719,146.817 75.5719,146.484 78.5,145.5C 79.1667,143.833 79.8333,142.167 80.5,140.5C 155.999,139.833 231.332,139.167 306.5,138.5C 307.167,129.167 307.833,119.833 308.5,110.5 Z"/></g>
<g><path style="opacity:1" fill="#6efa0c" d="M 208.5,120.5 C 179.167,120.5 149.833,120.5 120.5,120.5C 120.196,119.85 119.863,119.183 119.5,118.5C 120.5,117.167 121.5,115.833 122.5,114.5C 151.159,113.5 179.826,113.167 208.5,113.5C 208.5,115.833 208.5,118.167 208.5,120.5 Z"/></g>
<g><path style="opacity:1" fill="#2f6c2e" d="M 210.5,111.5 C 210.5,112.167 210.167,112.5 209.5,112.5C 180.167,112.5 150.833,112.5 121.5,112.5C 114.825,112.334 108.158,112.5 101.5,113C 98.8554,114.287 97.8554,116.453 98.5,119.5C 100.099,119.232 101.432,119.566 102.5,120.5C 97.7863,120.827 93.1196,120.493 88.5,119.5C 88.8627,118.817 89.1961,118.15 89.5,117.5C 89.5,117.167 89.5,116.833 89.5,116.5C 90.9616,115.542 92.2949,114.376 93.5,113C 95.5,112.667 97.5,112.333 99.5,112C 136.498,111.5 173.498,111.333 210.5,111.5 Z"/></g>
<g><path style="opacity:1" fill="#479c2d" d="M 121.5,112.5 C 121.5,113.167 121.167,113.5 120.5,113.5C 114.358,113.1 108.358,113.767 102.5,115.5C 104.335,116.428 104.668,117.594 103.5,119C 107.688,119.176 111.688,119.676 115.5,120.5C 111.167,120.5 106.833,120.5 102.5,120.5C 101.432,119.566 100.099,119.232 98.5,119.5C 97.8554,116.453 98.8554,114.287 101.5,113C 108.158,112.5 114.825,112.334 121.5,112.5 Z"/></g>
<g><path style="opacity:1" fill="#46a31f" d="M 120.5,113.5 C 119.432,114.434 118.099,114.768 116.5,114.5C 115.969,117.888 117.303,119.888 120.5,120.5C 149.833,120.5 179.167,120.5 208.5,120.5C 208.833,120.5 209.167,120.5 209.5,120.5C 209.5,120.833 209.5,121.167 209.5,121.5C 178.167,121.5 146.833,121.5 115.5,121.5C 115.5,121.167 115.5,120.833 115.5,120.5C 111.688,119.676 107.688,119.176 103.5,119C 104.668,117.594 104.335,116.428 102.5,115.5C 108.358,113.767 114.358,113.1 120.5,113.5 Z"/></g>
<g><path style="opacity:1" fill="#b2bec5" d="M 308.5,110.5 C 307.833,119.833 307.167,129.167 306.5,138.5C 306.5,138.167 306.5,137.833 306.5,137.5C 306.168,128.143 306.502,118.81 307.5,109.5C 308.107,109.624 308.44,109.957 308.5,110.5 Z"/></g>
<g><path style="opacity:1" fill="#295e3a" d="M 89.5,117.5 C 89.1961,118.15 88.8627,118.817 88.5,119.5C 93.1196,120.493 97.7863,120.827 102.5,120.5C 106.833,120.5 111.167,120.5 115.5,120.5C 115.5,120.833 115.5,121.167 115.5,121.5C 106.167,121.5 96.8333,121.5 87.5,121.5C 87.1568,119.517 87.8235,118.183 89.5,117.5 Z"/></g>
<g><path style="opacity:1" fill="#e4edec" d="M 209.5,121.5 C 209.5,121.167 209.5,120.833 209.5,120.5C 209.5,117.833 209.5,115.167 209.5,112.5C 210.167,112.5 210.5,112.167 210.5,111.5C 210.5,111.167 210.5,110.833 210.5,110.5C 215.947,106.254 221.114,106.587 226,111.5C 228.93,122.246 224.763,127.413 213.5,127C 211.536,125.549 210.203,123.716 209.5,121.5 Z"/></g>
<g><path style="opacity:1" fill="#3f5c56" d="M 306.5,137.5 C 306.5,137.833 306.5,138.167 306.5,138.5C 228.833,138.333 151.166,138.5 73.5,139C 72.9341,139.995 72.2674,140.828 71.5,141.5C 71.5,140.167 71.5,138.833 71.5,137.5C 149.833,137.5 228.167,137.5 306.5,137.5 Z"/></g>
<g><path style="opacity:1" fill="#d0e1dc" d="M 306.5,138.5 C 231.332,139.167 155.999,139.833 80.5,140.5C 79.8333,142.167 79.1667,143.833 78.5,145.5C 75.5719,146.484 72.5719,146.817 69.5,146.5C 69.8925,144.716 70.5592,143.05 71.5,141.5C 72.2674,140.828 72.9341,139.995 73.5,139C 151.166,138.5 228.833,138.333 306.5,138.5 Z"/></g>
<g><path style="opacity:1" fill="#469728" d="M 396.5,129.5 C 400.408,134.314 404.075,139.314 407.5,144.5C 402.227,141.02 398.894,142.353 397.5,148.5C 397.167,148.5 396.833,148.5 396.5,148.5C 395.358,144.883 393.692,141.55 391.5,138.5C 390.545,136.254 389.878,133.921 389.5,131.5C 392.076,131.532 394.409,130.865 396.5,129.5 Z"/></g>
<g><path style="opacity:1" fill="#7e9097" d="M 68.5,147.5 C 138.998,148.499 209.665,148.833 280.5,148.5C 280.5,148.833 280.5,149.167 280.5,149.5C 209.497,149.833 138.497,149.5 67.5,148.5C 67.6236,147.893 67.9569,147.56 68.5,147.5 Z"/></g>
<g><path style="opacity:1" fill="#173f23" d="M 396.5,148.5 C 396.833,148.5 397.167,148.5 397.5,148.5C 400.025,152.217 402.025,156.217 403.5,160.5C 399.568,157.538 397.235,153.538 396.5,148.5 Z"/></g>
<g><path style="opacity:1" fill="#0d2728" d="M 270.5,155.5 C 268.898,157.074 266.898,157.741 264.5,157.5C 197.163,157.167 129.83,157.5 62.5,158.5C 62.0576,159.739 61.3909,160.739 60.5,161.5C 60.4606,160.417 60.1272,159.417 59.5,158.5C 60.1667,157.833 60.8333,157.167 61.5,156.5C 131.163,155.5 200.83,155.167 270.5,155.5 Z"/></g>
<g><path style="opacity:1" fill="#ebfeec" d="M 275.5,154.5 C 275.196,155.15 274.863,155.817 274.5,156.5C 271.683,157.291 269.183,158.624 267,160.5C 201.904,159.502 136.738,159.169 71.5,159.5C 135.833,158.833 200.167,158.167 264.5,157.5C 266.898,157.741 268.898,157.074 270.5,155.5C 272.216,155.371 273.883,155.038 275.5,154.5 Z"/></g>
<g><path style="opacity:1" fill="#f3fbf9" d="M 280.5,148.5 C 283.097,148.643 285.431,149.477 287.5,151C 313.165,151.5 338.831,151.667 364.5,151.5C 346.305,161.938 327.638,171.938 308.5,181.5C 307.833,176.683 307.166,172.017 306.5,167.5C 227.668,166.501 148.668,166.167 69.5,166.5C 69.3939,163.921 70.0605,161.588 71.5,159.5C 136.738,159.169 201.904,159.502 267,160.5C 269.183,158.624 271.683,157.291 274.5,156.5C 274.863,155.817 275.196,155.15 275.5,154.5C 277.473,153.194 279.139,151.527 280.5,149.5C 280.5,149.167 280.5,148.833 280.5,148.5 Z"/></g>
<g><path style="opacity:1" fill="#17491c" d="M 403.5,160.5 C 405.008,162.181 406.008,164.181 406.5,166.5C 404.031,165.393 403.031,163.393 403.5,160.5 Z"/></g>
<g><path style="opacity:1" fill="#b0d4bd" d="M 377.5,150.5 C 378.756,150.461 379.756,150.961 380.5,152C 369.26,159.425 357.927,166.592 346.5,173.5C 333.394,180.221 320.727,187.721 308.5,196C 307.563,196.692 306.897,196.525 306.5,195.5C 306.5,186.167 306.5,176.833 306.5,167.5C 307.166,172.017 307.833,176.683 308.5,181.5C 327.638,171.938 346.305,161.938 364.5,151.5C 369.032,151.818 373.366,151.485 377.5,150.5 Z"/></g>
<g><path style="opacity:1" fill="#174325" d="M 416.5,163.5 C 417.583,163.539 418.583,163.873 419.5,164.5C 421.174,169.844 422.841,175.177 424.5,180.5C 424.167,180.5 423.833,180.5 423.5,180.5C 421.366,174.769 419.033,169.102 416.5,163.5 Z"/></g>
<g><path style="opacity:1" fill="#a2b9ac" d="M 264.5,157.5 C 200.167,158.167 135.833,158.833 71.5,159.5C 70.0605,161.588 69.3939,163.921 69.5,166.5C 148.668,166.167 227.668,166.501 306.5,167.5C 223.833,167.5 141.167,167.5 58.5,167.5C 59.1667,165.5 59.8333,163.5 60.5,161.5C 61.3909,160.739 62.0576,159.739 62.5,158.5C 129.83,157.5 197.163,157.167 264.5,157.5 Z"/></g>
<g><path style="opacity:1" fill="#223f3a" d="M 58.5,167.5 C 141.167,167.5 223.833,167.5 306.5,167.5C 306.5,176.833 306.5,186.167 306.5,195.5C 305.523,192.713 305.19,189.713 305.5,186.5C 305.5,180.5 305.5,174.5 305.5,168.5C 222.998,168.833 140.665,168.499 58.5,167.5 Z"/></g>
<g><path style="opacity:1" fill="#20601b" d="M 409.5,173.5 C 411.074,175.102 411.741,177.102 411.5,179.5C 409.926,177.898 409.259,175.898 409.5,173.5 Z"/></g>
<g><path style="opacity:1" fill="#5bd816" d="M 78.5,177.5 C 120.167,177.5 161.833,177.5 203.5,177.5C 203.378,180.292 202.044,182.292 199.5,183.5C 199.5,182.167 199.5,180.833 199.5,179.5C 164.196,178.353 128.863,178.186 93.5,179C 90.037,181.15 88.7036,184.316 89.5,188.5C 122.151,189.449 154.818,189.782 187.5,189.5C 187.5,189.833 187.5,190.167 187.5,190.5C 186.5,190.5 185.5,190.5 184.5,190.5C 150.833,190.5 117.167,190.5 83.5,190.5C 83.5,190.167 83.5,189.833 83.5,189.5C 80.9356,185.916 79.2689,181.916 78.5,177.5 Z"/></g>
<g><path style="opacity:1" fill="#f9fcfa" d="M 243.5,224.5 C 239.412,226.586 235.078,227.919 230.5,228.5C 171.167,228.5 111.833,228.5 52.5,228.5C 52.2229,225.552 52.5562,222.719 53.5,220C 111.668,219.833 169.668,219.333 227.5,218.5C 236.041,217.477 242.874,213.477 248,206.5C 251.588,200.325 254.922,193.991 258,187.5C 261.335,181.917 266.168,178.417 272.5,177C 279.826,176.5 287.159,176.334 294.5,176.5C 294.5,179.167 294.5,181.833 294.5,184.5C 288.158,184.334 281.825,184.5 275.5,185C 270.667,187.167 267.167,190.667 265,195.5C 261.685,208.173 254.519,217.84 243.5,224.5 Z"/></g>
<g><path style="opacity:1" fill="#55ed00" d="M 199.5,183.5 C 199.5,183.833 199.5,184.167 199.5,184.5C 197.77,185.026 196.436,186.026 195.5,187.5C 192.833,188.167 190.167,188.833 187.5,189.5C 154.818,189.782 122.151,189.449 89.5,188.5C 88.7036,184.316 90.037,181.15 93.5,179C 128.863,178.186 164.196,178.353 199.5,179.5C 199.5,180.833 199.5,182.167 199.5,183.5 Z"/></g>
<g><path style="opacity:1" fill="#429d23" d="M 78.5,177.5 C 79.2689,181.916 80.9356,185.916 83.5,189.5C 73.1667,189.5 62.8333,189.5 52.5,189.5C 52.3318,185.831 53.3318,182.498 55.5,179.5C 63.1907,178.77 70.8574,178.103 78.5,177.5 Z"/></g>
<g><path style="opacity:1" fill="#142d34" d="M 346.5,173.5 C 345.699,175.042 345.366,176.708 345.5,178.5C 342.412,178.197 340.746,179.53 340.5,182.5C 337.518,182.104 334.851,182.771 332.5,184.5C 333.443,189.1 333.777,193.767 333.5,198.5C 332.325,198.281 331.325,198.614 330.5,199.5C 333.547,201.24 336.547,203.073 339.5,205C 340.252,205.671 340.586,206.504 340.5,207.5C 336.7,205.766 333.034,203.766 329.5,201.5C 329.44,200.957 329.107,200.624 328.5,200.5C 327.503,207.803 327.169,215.137 327.5,222.5C 306.327,222.169 285.327,222.503 264.5,223.5C 254.64,231.575 243.306,236.575 230.5,238.5C 169.167,238.5 107.833,238.5 46.5,238.5C 107.999,237.667 169.665,237.167 231.5,237C 235.019,236.605 238.352,235.605 241.5,234C 241.616,232.732 241.949,231.398 242.5,230C 240.782,229.654 239.115,229.154 237.5,228.5C 234.026,230.062 230.36,230.895 226.5,231C 202.658,231.233 178.824,231.733 155,232.5C 116.886,232.343 78.7196,231.677 40.5,230.5C 40.4677,228.381 41.4677,227.048 43.5,226.5C 43.5,227.5 43.5,228.5 43.5,229.5C 106.002,229.832 168.336,229.499 230.5,228.5C 235.078,227.919 239.412,226.586 243.5,224.5C 243.119,225.931 242.119,226.764 240.5,227C 244.678,230.44 249.345,231.273 254.5,229.5C 256.476,227.713 257.809,225.546 258.5,223C 270.452,221.775 282.452,221.109 294.5,221C 305.057,217.722 315.724,216.556 326.5,217.5C 326.768,211.618 326.434,205.785 325.5,200C 326.663,198.145 328.33,196.811 330.5,196C 330.043,195.586 329.709,195.086 329.5,194.5C 330.247,194.264 331.08,193.93 332,193.5C 332.494,191.866 332.66,190.199 332.5,188.5C 329.859,187.737 327.192,187.57 324.5,188C 321.752,190.998 318.419,193.165 314.5,194.5C 315.42,196.786 315.42,199.119 314.5,201.5C 311.359,201.051 308.359,200.051 305.5,198.5C 304.191,194.351 304.191,190.351 305.5,186.5C 305.19,189.713 305.523,192.713 306.5,195.5C 306.897,196.525 307.563,196.692 308.5,196C 320.727,187.721 333.394,180.221 346.5,173.5 Z"/></g>
<g><path style="opacity:1" fill="#3b901f" d="M 423.5,180.5 C 423.833,180.5 424.167,180.5 424.5,180.5C 424.993,182.806 425.326,185.139 425.5,187.5C 424.076,185.485 423.41,183.152 423.5,180.5 Z"/></g>
<g><path style="opacity:1" fill="#e7f4f0" d="M 227.5,208.5 C 225.801,208.66 224.134,208.494 222.5,208C 225.057,205.724 226.724,202.89 227.5,199.5C 231.101,191.066 236.101,183.566 242.5,177C 246.5,176.333 250.5,176.333 254.5,177C 247.434,184.291 242.267,192.791 239,202.5C 235.779,205.694 231.946,207.694 227.5,208.5 Z"/></g>
<g><path style="opacity:1" fill="#20601c" d="M 411.5,179.5 C 412.117,179.611 412.617,179.944 413,180.5C 413.44,182.866 413.94,185.199 414.5,187.5C 413.883,187.389 413.383,187.056 413,186.5C 412.56,184.134 412.06,181.801 411.5,179.5 Z"/></g>
<g><path style="opacity:1" fill="#1c5a16" d="M 199.5,184.5 C 198.965,186.446 197.632,187.446 195.5,187.5C 196.436,186.026 197.77,185.026 199.5,184.5 Z"/></g>
<g><path style="opacity:1" fill="#387f2f" d="M 203.5,177.5 C 161.833,177.5 120.167,177.5 78.5,177.5C 70.8574,178.103 63.1907,178.77 55.5,179.5C 53.3318,182.498 52.3318,185.831 52.5,189.5C 62.8333,189.5 73.1667,189.5 83.5,189.5C 83.5,189.833 83.5,190.167 83.5,190.5C 72.8333,190.5 62.1667,190.5 51.5,190.5C 51.5,188.833 51.5,187.167 51.5,185.5C 52.1,182.702 53.1,180.035 54.5,177.5C 104.332,176.169 153.998,176.169 203.5,177.5 Z"/></g>
<g><path style="opacity:1" fill="#1f5d17" d="M 195.5,187.5 C 193.403,189.482 190.736,190.482 187.5,190.5C 187.5,190.167 187.5,189.833 187.5,189.5C 190.167,188.833 192.833,188.167 195.5,187.5 Z"/></g>
<g><path style="opacity:1" fill="#174c26" d="M 51.5,185.5 C 51.5,187.167 51.5,188.833 51.5,190.5C 62.1667,190.5 72.8333,190.5 83.5,190.5C 117.167,190.5 150.833,190.5 184.5,190.5C 140.003,191.499 95.3364,191.832 50.5,191.5C 50.2053,189.265 50.5386,187.265 51.5,185.5 Z"/></g>
<g><path style="opacity:1" fill="#175010" d="M 414.5,188.5 C 415.924,190.515 416.59,192.848 416.5,195.5C 415.833,194.5 415.167,193.5 414.5,192.5C 414.5,191.167 414.5,189.833 414.5,188.5 Z"/></g>
<g><path style="opacity:1" fill="#f5faf6" d="M 83.5,209.5 C 74.3483,208.506 65.015,208.173 55.5,208.5C 55.5,205.833 55.5,203.167 55.5,200.5C 100.003,200.832 144.336,200.499 188.5,199.5C 197.443,198.733 204.609,194.733 210,187.5C 211.97,184.032 214.136,180.699 216.5,177.5C 220.795,176.339 225.129,176.172 229.5,177C 225,183.5 220.5,190 216,196.5C 209.764,202.87 202.264,207.036 193.5,209C 156.835,209.5 120.168,209.667 83.5,209.5 Z"/></g>
<g><path style="opacity:1" fill="#10332f" d="M 414.5,192.5 C 415.167,193.5 415.833,194.5 416.5,195.5C 417.657,198.273 418.324,201.273 418.5,204.5C 418.5,206.5 418.5,208.5 418.5,210.5C 417.683,208.031 417.183,205.365 417,202.5C 414.714,199.635 413.88,196.302 414.5,192.5 Z"/></g>
<g><path style="opacity:1" fill="#fcfdfd" d="M 329.5,201.5 C 333.034,203.766 336.7,205.766 340.5,207.5C 355.88,217.529 371.546,227.195 387.5,236.5C 390.798,238.485 394.131,240.485 397.5,242.5C 395.052,243.473 392.385,243.806 389.5,243.5C 345.652,243.533 301.652,243.533 257.5,243.5C 254.833,243.167 252.167,242.833 249.5,242.5C 251.919,239.328 254.086,235.994 256,232.5C 257.87,230.781 260.037,229.781 262.5,229.5C 262.48,227.857 263.147,226.524 264.5,225.5C 285.996,224.833 307.329,224.167 328.5,223.5C 328.175,215.981 328.508,208.648 329.5,201.5 Z"/></g>
<g><path style="opacity:1" fill="#9db8bb" d="M 188.5,199.5 C 144.336,200.499 100.003,200.832 55.5,200.5C 55.5,203.167 55.5,205.833 55.5,208.5C 65.015,208.173 74.3483,208.506 83.5,209.5C 71.1667,209.5 58.8333,209.5 46.5,209.5C 46.4595,206.119 46.7929,202.786 47.5,199.5C 94.5,199.5 141.5,199.5 188.5,199.5 Z"/></g>
<g><path style="opacity:1" fill="#afcac8" d="M 227.5,199.5 C 226.724,202.89 225.057,205.724 222.5,208C 224.134,208.494 225.801,208.66 227.5,208.5C 224.36,209.641 221.027,209.808 217.5,209C 221.361,206.304 224.694,203.137 227.5,199.5 Z"/></g>
<g><path style="opacity:1" fill="#164722" d="M 430.5,207.5 C 432.402,210.337 433.069,213.671 432.5,217.5C 430.989,214.456 430.322,211.122 430.5,207.5 Z"/></g>
<g><path style="opacity:1" fill="#16481e" d="M 418.5,204.5 C 419.913,207.219 420.58,210.219 420.5,213.5C 420.5,214.833 420.5,216.167 420.5,217.5C 419.593,215.343 418.927,213.01 418.5,210.5C 418.5,208.5 418.5,206.5 418.5,204.5 Z"/></g>
<g><path style="opacity:1" fill="#0d2724" d="M 227.5,218.5 C 166.5,218.5 105.5,218.5 44.5,218.5C 44.7373,219.791 44.404,220.791 43.5,221.5C 43.5,219.833 43.5,218.167 43.5,216.5C 105.002,216.795 166.335,217.461 227.5,218.5 Z"/></g>
<g><path style="opacity:1" fill="#5cf003" d="M 407.5,144.5 C 410.754,150.677 413.754,157.01 416.5,163.5C 419.033,169.102 421.366,174.769 423.5,180.5C 423.41,183.152 424.076,185.485 425.5,187.5C 427.145,192.082 428.479,196.749 429.5,201.5C 431.13,221.092 431.797,240.758 431.5,260.5C 431.313,265.845 430.98,271.178 430.5,276.5C 428.404,284.696 426.404,293.029 424.5,301.5C 422.872,304.961 421.872,308.628 421.5,312.5C 417.902,317.245 415.235,322.578 413.5,328.5C 411.992,330.181 410.992,332.181 410.5,334.5C 409.263,335.965 408.263,337.632 407.5,339.5C 406.448,339.649 405.448,339.483 404.5,339C 402.234,337.574 400.568,335.74 399.5,333.5C 400.441,331.95 401.107,330.284 401.5,328.5C 403.975,327.313 404.975,325.313 404.5,322.5C 405.736,320.351 406.736,318.018 407.5,315.5C 408.738,313.786 409.405,311.786 409.5,309.5C 411.928,305.901 413.594,301.901 414.5,297.5C 414.5,297.167 414.5,296.833 414.5,296.5C 415.345,295.329 416.011,293.995 416.5,292.5C 417.117,292.389 417.617,292.056 418,291.5C 417.907,288.044 418.907,285.044 421,282.5C 423.548,261.393 424.048,240.393 422.5,219.5C 421.833,217.5 421.167,215.5 420.5,213.5C 420.58,210.219 419.913,207.219 418.5,204.5C 418.324,201.273 417.657,198.273 416.5,195.5C 416.59,192.848 415.924,190.515 414.5,188.5C 414.5,188.167 414.5,187.833 414.5,187.5C 413.94,185.199 413.44,182.866 413,180.5C 412.617,179.944 412.117,179.611 411.5,179.5C 411.741,177.102 411.074,175.102 409.5,173.5C 408.677,171.013 407.677,168.679 406.5,166.5C 406.008,164.181 405.008,162.181 403.5,160.5C 402.025,156.217 400.025,152.217 397.5,148.5C 398.894,142.353 402.227,141.02 407.5,144.5 Z"/></g>
<g><path style="opacity:1" fill="#384f54" d="M 329.5,201.5 C 328.508,208.648 328.175,215.981 328.5,223.5C 307.167,223.5 285.833,223.5 264.5,223.5C 285.327,222.503 306.327,222.169 327.5,222.5C 327.169,215.137 327.503,207.803 328.5,200.5C 329.107,200.624 329.44,200.957 329.5,201.5 Z"/></g>
<g><path style="opacity:1" fill="#439928" d="M 420.5,213.5 C 421.167,215.5 421.833,217.5 422.5,219.5C 422.5,222.5 422.5,225.5 422.5,228.5C 422.167,228.5 421.833,228.5 421.5,228.5C 421.448,224.802 421.114,221.135 420.5,217.5C 420.5,216.167 420.5,214.833 420.5,213.5 Z"/></g>
<g><path style="opacity:1" fill="#b7c9bd" d="M 227.5,218.5 C 169.668,219.333 111.668,219.833 53.5,220C 52.5562,222.719 52.2229,225.552 52.5,228.5C 111.833,228.5 171.167,228.5 230.5,228.5C 168.336,229.499 106.002,229.832 43.5,229.5C 43.5,228.5 43.5,227.5 43.5,226.5C 43.5,224.833 43.5,223.167 43.5,221.5C 44.404,220.791 44.7373,219.791 44.5,218.5C 105.5,218.5 166.5,218.5 227.5,218.5 Z"/></g>
<g><path style="opacity:1" fill="#52c312" d="M 429.5,201.5 C 430.461,203.265 430.795,205.265 430.5,207.5C 430.322,211.122 430.989,214.456 432.5,217.5C 433.285,229.817 433.618,242.15 433.5,254.5C 432.833,256.5 432.167,258.5 431.5,260.5C 431.797,240.758 431.13,221.092 429.5,201.5 Z"/></g>
<g><path style="opacity:1" fill="#b0cbbb" d="M 46.5,238.5 C 107.833,238.5 169.167,238.5 230.5,238.5C 171.336,239.499 112.002,239.832 52.5,239.5C 52.5,243.833 52.5,248.167 52.5,252.5C 111.336,252.168 170.002,252.501 228.5,253.5C 166.833,253.5 105.167,253.5 43.5,253.5C 43.5,248.5 43.5,243.5 43.5,238.5C 44.5,238.5 45.5,238.5 46.5,238.5 Z"/></g>
<g><path style="opacity:1" fill="#f2faf7" d="M 264.5,223.5 C 285.833,223.5 307.167,223.5 328.5,223.5C 307.329,224.167 285.996,224.833 264.5,225.5C 263.147,226.524 262.48,227.857 262.5,229.5C 260.037,229.781 257.87,230.781 256,232.5C 254.086,235.994 251.919,239.328 249.5,242.5C 252.167,242.833 254.833,243.167 257.5,243.5C 301.652,243.533 345.652,243.533 389.5,243.5C 387.473,243.338 385.473,243.505 383.5,244C 365.951,253.249 348.284,262.416 330.5,271.5C 329.833,266.683 329.166,262.017 328.5,257.5C 301.167,257.5 273.833,257.5 246.5,257.5C 240.55,255.962 234.55,254.628 228.5,253.5C 170.002,252.501 111.336,252.168 52.5,252.5C 52.5,248.167 52.5,243.833 52.5,239.5C 112.002,239.832 171.336,239.499 230.5,238.5C 243.306,236.575 254.64,231.575 264.5,223.5 Z"/></g>
<g><path style="opacity:1" fill="#112c36" d="M 387.5,236.5 C 391.44,236.965 395.107,238.298 398.5,240.5C 400.029,240.471 401.196,239.804 402,238.5C 402.466,241.312 401.966,243.979 400.5,246.5C 399.264,247.246 397.93,247.579 396.5,247.5C 395.793,250.786 395.46,254.119 395.5,257.5C 393.208,257.756 391.041,257.423 389,256.5C 389.207,258.751 389.373,261.085 389.5,263.5C 385.738,263.348 382.072,262.681 378.5,261.5C 377.833,262.167 377.167,262.833 376.5,263.5C 374.591,262.652 372.591,262.318 370.5,262.5C 380.328,256.197 390.328,250.03 400.5,244C 399.756,242.961 398.756,242.461 397.5,242.5C 394.131,240.485 390.798,238.485 387.5,236.5 Z"/></g>
<g><path style="opacity:1" fill="#9ff376" d="M 246.5,257.5 C 273.833,257.5 301.167,257.5 328.5,257.5C 328.5,261.833 328.5,266.167 328.5,270.5C 328.167,270.5 327.833,270.5 327.5,270.5C 327.5,266.5 327.5,262.5 327.5,258.5C 301.426,258.176 275.426,258.51 249.5,259.5C 248.5,258.833 247.5,258.167 246.5,257.5 Z"/></g>
<g><path style="opacity:1" fill="#59ed05" d="M 327.5,270.5 C 306.5,270.5 285.5,270.5 264.5,270.5C 261.127,267.822 257.794,265.156 254.5,262.5C 254.027,261.094 253.027,260.427 251.5,260.5C 250.508,260.672 249.842,260.338 249.5,259.5C 275.426,258.51 301.426,258.176 327.5,258.5C 327.5,262.5 327.5,266.5 327.5,270.5 Z"/></g>
<g><path style="opacity:1" fill="#1a3230" d="M 226.5,262.5 C 170.5,262.5 114.5,262.5 58.5,262.5C 58.811,261.522 59.4777,260.855 60.5,260.5C 115.782,261.142 171.115,261.808 226.5,262.5 Z"/></g>
<g><path style="opacity:1" fill="#419b22" d="M 251.5,260.5 C 253.027,260.427 254.027,261.094 254.5,262.5C 254.167,262.5 253.833,262.5 253.5,262.5C 252.5,262.167 251.833,261.5 251.5,260.5 Z"/></g>
<g><path style="opacity:1" fill="#b0d6bc" d="M 397.5,242.5 C 398.756,242.461 399.756,242.961 400.5,244C 390.328,250.03 380.328,256.197 370.5,262.5C 356.697,270.236 343.03,278.236 329.5,286.5C 328.512,281.36 328.179,276.026 328.5,270.5C 328.5,266.167 328.5,261.833 328.5,257.5C 329.166,262.017 329.833,266.683 330.5,271.5C 348.284,262.416 365.951,253.249 383.5,244C 385.473,243.505 387.473,243.338 389.5,243.5C 392.385,243.806 395.052,243.473 397.5,242.5 Z"/></g>
<g><path style="opacity:1" fill="#dae8de" d="M 58.5,262.5 C 114.5,262.5 170.5,262.5 226.5,262.5C 228.099,262.232 229.432,262.566 230.5,263.5C 181.857,264.481 133.19,264.814 84.5,264.5C 84.3291,266.993 85.3291,268.826 87.5,270C 133.335,270.167 179.002,270.667 224.5,271.5C 164.833,271.5 105.167,271.5 45.5,271.5C 45.7373,270.209 45.404,269.209 44.5,268.5C 44.5,266.5 44.5,264.5 44.5,262.5C 49.1667,262.5 53.8333,262.5 58.5,262.5 Z"/></g>
<g><path style="opacity:1" fill="#f8fbf9" d="M 230.5,263.5 C 248.193,268.02 260.026,279.02 266,296.5C 268.812,300.662 272.645,303.495 277.5,305C 283.157,305.499 288.824,305.666 294.5,305.5C 294.5,308.167 294.5,310.833 294.5,313.5C 287.492,313.666 280.492,313.5 273.5,313C 267.634,311.479 262.8,308.312 259,303.5C 255.366,297.187 251.699,290.853 248,284.5C 241.872,277.186 234.039,273.186 224.5,272.5C 224.5,272.167 224.5,271.833 224.5,271.5C 179.002,270.667 133.335,270.167 87.5,270C 85.3291,268.826 84.3291,266.993 84.5,264.5C 133.19,264.814 181.857,264.481 230.5,263.5 Z"/></g>
<g><path style="opacity:1" fill="#276c1f" d="M 421.5,228.5 C 421.833,228.5 422.167,228.5 422.5,228.5C 422.666,238.839 422.5,249.172 422,259.5C 421.817,262.365 421.317,265.031 420.5,267.5C 421.299,254.516 421.633,241.516 421.5,228.5 Z"/></g>
<g><path style="opacity:1" fill="#1d5a1e" d="M 433.5,254.5 C 433.602,262.117 432.602,269.45 430.5,276.5C 430.98,271.178 431.313,265.845 431.5,260.5C 432.167,258.5 432.833,256.5 433.5,254.5 Z"/></g>
<g><path style="opacity:1" fill="#b2cca9" d="M 44.5,268.5 C 45.404,269.209 45.7373,270.209 45.5,271.5C 105.167,271.5 164.833,271.5 224.5,271.5C 224.5,271.833 224.5,272.167 224.5,272.5C 164.5,272.5 104.5,272.5 44.5,272.5C 44.5,271.167 44.5,269.833 44.5,268.5 Z"/></g>
<g><path style="opacity:1" fill="#0b2d2d" d="M 253.5,262.5 C 253.833,262.5 254.167,262.5 254.5,262.5C 257.794,265.156 261.127,267.822 264.5,270.5C 285.327,271.497 306.327,271.831 327.5,271.5C 327.5,276.833 327.5,282.167 327.5,287.5C 326.513,282.695 326.179,277.695 326.5,272.5C 305.156,272.833 283.823,272.5 262.5,271.5C 260.649,269.544 258.316,268.544 255.5,268.5C 255.386,266.282 254.72,264.282 253.5,262.5 Z"/></g>
<g><path style="opacity:1" fill="#406c3e" d="M 264.5,270.5 C 285.5,270.5 306.5,270.5 327.5,270.5C 327.833,270.5 328.167,270.5 328.5,270.5C 328.179,276.026 328.512,281.36 329.5,286.5C 329.158,287.338 328.492,287.672 327.5,287.5C 327.5,282.167 327.5,276.833 327.5,271.5C 306.327,271.831 285.327,271.497 264.5,270.5 Z"/></g>
<g><path style="opacity:1" fill="#1b5619" d="M 419.5,275.5 C 419.829,278.228 419.163,280.562 417.5,282.5C 417.41,279.848 418.076,277.515 419.5,275.5 Z"/></g>
<g><path style="opacity:1" fill="#0d3e16" d="M 196.5,282.5 C 195.167,282.5 193.833,282.5 192.5,282.5C 147.003,281.501 101.336,281.168 55.5,281.5C 52.8333,281.5 50.1667,281.5 47.5,281.5C 47.5,282.833 47.5,284.167 47.5,285.5C 46.5489,284.081 46.2155,282.415 46.5,280.5C 95.5011,280.333 144.501,280.5 193.5,281C 194.737,281.232 195.737,281.732 196.5,282.5 Z"/></g>
<g><path style="opacity:1" fill="#5edb10" d="M 422.5,219.5 C 424.048,240.393 423.548,261.393 421,282.5C 418.907,285.044 417.907,288.044 418,291.5C 417.617,292.056 417.117,292.389 416.5,292.5C 417.051,289.193 417.384,285.86 417.5,282.5C 419.163,280.562 419.829,278.228 419.5,275.5C 419.833,272.833 420.167,270.167 420.5,267.5C 421.317,265.031 421.817,262.365 422,259.5C 422.5,249.172 422.666,238.839 422.5,228.5C 422.5,225.5 422.5,222.5 422.5,219.5 Z"/></g>
<g><path style="opacity:1" fill="#59b639" d="M 55.5,281.5 C 101.336,281.168 147.003,281.501 192.5,282.5C 189.5,282.5 186.5,282.5 183.5,282.5C 141.167,282.5 98.8333,282.5 56.5,282.5C 56.5,284.833 56.5,287.167 56.5,289.5C 54.2362,288.781 51.9029,288.448 49.5,288.5C 49.3398,286.801 49.5065,285.134 50,283.5C 51.9483,282.891 53.7816,282.224 55.5,281.5 Z"/></g>
<g><path style="opacity:1" fill="#70fc00" d="M 183.5,282.5 C 186.641,283.321 189.975,283.821 193.5,284C 192.552,284.483 191.552,284.649 190.5,284.5C 190.421,285.93 190.754,287.264 191.5,288.5C 146.505,289.5 101.505,289.833 56.5,289.5C 56.5,287.167 56.5,284.833 56.5,282.5C 98.8333,282.5 141.167,282.5 183.5,282.5 Z"/></g>
<g><path style="opacity:1" fill="#184723" d="M 417.5,282.5 C 417.384,285.86 417.051,289.193 416.5,292.5C 416.011,293.995 415.345,295.329 414.5,296.5C 414.656,291.529 415.656,286.862 417.5,282.5 Z"/></g>
<g><path style="opacity:1" fill="#1a531d" d="M 430.5,276.5 C 430.773,285.489 428.773,293.822 424.5,301.5C 426.404,293.029 428.404,284.696 430.5,276.5 Z"/></g>
<g><path style="opacity:1" fill="#489539" d="M 55.5,281.5 C 53.7816,282.224 51.9483,282.891 50,283.5C 49.5065,285.134 49.3398,286.801 49.5,288.5C 51.9029,288.448 54.2362,288.781 56.5,289.5C 56.5,289.833 56.5,290.167 56.5,290.5C 54.1667,290.5 51.8333,290.5 49.5,290.5C 48.0687,289.22 47.4021,287.553 47.5,285.5C 47.5,284.167 47.5,282.833 47.5,281.5C 50.1667,281.5 52.8333,281.5 55.5,281.5 Z"/></g>
<g><path style="opacity:1" fill="#69ef18" d="M 183.5,282.5 C 186.5,282.5 189.5,282.5 192.5,282.5C 193.833,282.5 195.167,282.5 196.5,282.5C 196.833,282.5 197.167,282.5 197.5,282.5C 203.366,285.01 209.032,288.01 214.5,291.5C 215.921,294.009 217.588,296.343 219.5,298.5C 219.427,300.027 220.094,301.027 221.5,301.5C 223.167,303.5 224.833,305.5 226.5,307.5C 227.237,309.305 228.237,310.971 229.5,312.5C 225.119,313.77 220.785,313.77 216.5,312.5C 214.6,308.268 211.933,304.601 208.5,301.5C 206.806,299.139 204.806,297.139 202.5,295.5C 201.71,294.206 200.71,293.039 199.5,292C 196.522,291.304 193.522,290.804 190.5,290.5C 145.833,290.5 101.167,290.5 56.5,290.5C 56.5,290.167 56.5,289.833 56.5,289.5C 101.505,289.833 146.505,289.5 191.5,288.5C 190.754,287.264 190.421,285.93 190.5,284.5C 191.552,284.649 192.552,284.483 193.5,284C 189.975,283.821 186.641,283.321 183.5,282.5 Z"/></g>
<g><path style="opacity:1" fill="#13332f" d="M 197.5,282.5 C 200.163,282.899 202.663,282.899 205,282.5C 206.498,284.559 208.498,285.892 211,286.5C 211.833,284 213,283.833 214.5,286C 212.103,287.71 212.103,289.544 214.5,291.5C 209.032,288.01 203.366,285.01 197.5,282.5 Z"/></g>
<g><path style="opacity:1" fill="#eaf4f3" d="M 218.5,282.5 C 227.918,281.044 235.418,284.377 241,292.5C 244.279,300.443 249.112,307.277 255.5,313C 251.167,313.667 246.833,313.667 242.5,313C 236.139,305.779 230.639,297.946 226,289.5C 223.63,286.961 221.13,284.628 218.5,282.5 Z"/></g>
<g><path style="opacity:1" fill="#163e29" d="M 49.5,290.5 C 51.8333,290.5 54.1667,290.5 56.5,290.5C 101.167,290.5 145.833,290.5 190.5,290.5C 192.5,291.5 194.5,292.5 196.5,293.5C 149.522,292.686 102.522,292.186 55.5,292C 53.2922,291.809 51.2922,291.309 49.5,290.5 Z"/></g>
<g><path style="opacity:1" fill="#60c939" d="M 190.5,290.5 C 193.522,290.804 196.522,291.304 199.5,292C 200.71,293.039 201.71,294.206 202.5,295.5C 200.938,295.267 199.605,294.6 198.5,293.5C 197.833,293.5 197.167,293.5 196.5,293.5C 194.5,292.5 192.5,291.5 190.5,290.5 Z"/></g>
<g><path style="opacity:1" fill="#133a2d" d="M 214.5,291.5 C 217.888,292.572 219.888,294.905 220.5,298.5C 220.167,298.5 219.833,298.5 219.5,298.5C 217.588,296.343 215.921,294.009 214.5,291.5 Z"/></g>
<g><path style="opacity:1" fill="#fcfdfc" d="M 308.5,291.5 C 320.935,299.559 333.602,307.392 346.5,315C 349.071,316.454 351.738,317.62 354.5,318.5C 361.213,323.195 368.213,327.528 375.5,331.5C 359.154,333.185 342.487,334.185 325.5,334.5C 307.534,333.846 289.534,333.179 271.5,332.5C 211.503,331.667 151.503,331.167 91.5,331C 92.5,330.667 93.5,330.333 94.5,330C 95.7751,327.409 97.4417,325.242 99.5,323.5C 168.669,323.833 237.669,323.499 306.5,322.5C 305.858,311.779 306.525,301.446 308.5,291.5 Z"/></g>
<g><path style="opacity:1" fill="#0a2c32" d="M 53.5,299.5 C 76.1642,298.833 98.9975,298.5 122,298.5C 145.177,298.5 168.01,299.167 190.5,300.5C 188.833,300.5 187.167,300.5 185.5,300.5C 141.67,299.501 97.6698,299.168 53.5,299.5 Z"/></g>
<g><path style="opacity:1" fill="#32742f" d="M 53.5,299.5 C 97.6698,299.168 141.67,299.501 185.5,300.5C 151.996,300.168 118.662,300.502 85.5,301.5C 74.8333,301.5 64.1667,301.5 53.5,301.5C 53.5,302.5 53.5,303.5 53.5,304.5C 52.1667,302.833 52.1667,301.167 53.5,299.5 Z"/></g>
<g><path style="opacity:1" fill="#51bb28" d="M 185.5,300.5 C 187.167,300.5 188.833,300.5 190.5,300.5C 192.636,301.653 194.636,302.986 196.5,304.5C 193.941,304.61 191.608,303.944 189.5,302.5C 155.167,301.167 120.833,301.167 86.5,302.5C 88.051,305.359 89.051,308.359 89.5,311.5C 87.1424,308.757 85.809,305.423 85.5,301.5C 118.662,300.502 151.996,300.168 185.5,300.5 Z"/></g>
<g><path style="opacity:1" fill="#122f35" d="M 198.5,293.5 C 199.605,294.6 200.938,295.267 202.5,295.5C 204.806,297.139 206.806,299.139 208.5,301.5C 208.557,302.609 208.89,303.609 209.5,304.5C 208.883,304.611 208.383,304.944 208,305.5C 207.627,307.698 207.127,309.865 206.5,312C 206.164,313.03 205.497,313.53 204.5,313.5C 203.727,310.484 202.061,308.15 199.5,306.5C 198.71,305.599 197.71,304.932 196.5,304.5C 194.636,302.986 192.636,301.653 190.5,300.5C 193.522,300.804 196.522,301.304 199.5,302C 200.849,302.772 201.682,303.939 202,305.5C 202.067,302.953 202.901,300.786 204.5,299C 202.941,298.02 201.274,297.187 199.5,296.5C 198.873,295.583 198.539,294.583 198.5,293.5 Z"/></g>
<g><path style="opacity:1" fill="#3d8a1f" d="M 219.5,298.5 C 219.833,298.5 220.167,298.5 220.5,298.5C 221.11,299.391 221.443,300.391 221.5,301.5C 220.094,301.027 219.427,300.027 219.5,298.5 Z"/></g>
<g><path style="opacity:1" fill="#53e200" d="M 196.5,304.5 C 197.71,304.932 198.71,305.599 199.5,306.5C 199.703,308.044 200.37,309.378 201.5,310.5C 199.922,311.298 198.256,311.798 196.5,312C 161.168,312.5 125.835,312.667 90.5,312.5C 89.8333,312.5 89.5,312.167 89.5,311.5C 89.051,308.359 88.051,305.359 86.5,302.5C 120.833,301.167 155.167,301.167 189.5,302.5C 191.608,303.944 193.941,304.61 196.5,304.5 Z"/></g>
<g><path style="opacity:1" fill="#143e26" d="M 414.5,297.5 C 413.594,301.901 411.928,305.901 409.5,309.5C 409.192,307.076 409.526,304.743 410.5,302.5C 411.835,300.799 413.168,299.132 414.5,297.5 Z"/></g>
<g><path style="opacity:1" fill="#194228" d="M 208.5,301.5 C 211.933,304.601 214.6,308.268 216.5,312.5C 215.027,311.26 213.36,310.26 211.5,309.5C 210.83,307.709 210.163,306.042 209.5,304.5C 208.89,303.609 208.557,302.609 208.5,301.5 Z"/></g>
<g><path style="opacity:1" fill="#429c23" d="M 85.5,301.5 C 85.809,305.423 87.1424,308.757 89.5,311.5C 89.5,312.167 89.8333,312.5 90.5,312.5C 90.5,312.833 90.5,313.167 90.5,313.5C 79.1667,313.5 67.8333,313.5 56.5,313.5C 55.6289,310.509 54.6289,307.509 53.5,304.5C 53.5,303.5 53.5,302.5 53.5,301.5C 64.1667,301.5 74.8333,301.5 85.5,301.5 Z"/></g>
<g><path style="opacity:1" fill="#163d25" d="M 226.5,307.5 C 228.074,307.937 229.241,308.937 230,310.5C 230.718,309.549 231.551,309.383 232.5,310C 231.62,311.356 231.286,312.856 231.5,314.5C 226.056,315.108 221.056,314.442 216.5,312.5C 220.785,313.77 225.119,313.77 229.5,312.5C 228.237,310.971 227.237,309.305 226.5,307.5 Z"/></g>
<g><path style="opacity:1" fill="#55c022" d="M 199.5,306.5 C 202.061,308.15 203.727,310.484 204.5,313.5C 166.5,313.5 128.5,313.5 90.5,313.5C 90.5,313.167 90.5,312.833 90.5,312.5C 125.835,312.667 161.168,312.5 196.5,312C 198.256,311.798 199.922,311.298 201.5,310.5C 200.37,309.378 199.703,308.044 199.5,306.5 Z"/></g>
<g><path style="opacity:1" fill="#0f3326" d="M 56.5,313.5 C 67.8333,313.5 79.1667,313.5 90.5,313.5C 128.5,313.5 166.5,313.5 204.5,313.5C 204.082,314.222 203.416,314.722 202.5,315C 154.5,315.667 106.5,315.667 58.5,315C 57.5842,314.722 56.9175,314.222 56.5,313.5 Z"/></g>
<g><path style="opacity:1" fill="#174626" d="M 421.5,312.5 C 421.747,314.858 421.081,316.858 419.5,318.5C 418.43,321.498 417.096,324.498 415.5,327.5C 415.043,328.298 414.376,328.631 413.5,328.5C 415.235,322.578 417.902,317.245 421.5,312.5 Z"/></g>
<g><path style="opacity:1" fill="#223938" d="M 308.5,291.5 C 306.525,301.446 305.858,311.779 306.5,322.5C 224.5,322.5 142.5,322.5 60.5,322.5C 140.999,321.667 221.666,321.167 302.5,321C 304.46,311.093 305.127,300.926 304.5,290.5C 306.099,290.232 307.432,290.566 308.5,291.5 Z"/></g>
<g><path style="opacity:1" fill="#b2c3c2" d="M 60.5,322.5 C 142.5,322.5 224.5,322.5 306.5,322.5C 237.669,323.499 168.669,323.833 99.5,323.5C 89.8333,323.5 80.1667,323.5 70.5,323.5C 70.5,326.5 70.5,329.5 70.5,332.5C 68.5,332.5 66.5,332.5 64.5,332.5C 62.7128,329.369 61.3795,326.036 60.5,322.5 Z"/></g>
<g><path style="opacity:1" fill="#399218" d="M 404.5,322.5 C 404.975,325.313 403.975,327.313 401.5,328.5C 402.508,326.456 403.508,324.456 404.5,322.5 Z"/></g>
<g><path style="opacity:1" fill="#0f2a37" d="M 407.5,315.5 C 406.736,318.018 405.736,320.351 404.5,322.5C 403.508,324.456 402.508,326.456 401.5,328.5C 401.107,330.284 400.441,331.95 399.5,333.5C 397.953,334.768 396.953,336.435 396.5,338.5C 390.612,347.241 384.445,355.908 378,364.5C 375.267,367.062 372.767,369.729 370.5,372.5C 370.966,370.799 370.966,369.299 370.5,368C 375.358,366.201 377.358,362.701 376.5,357.5C 374.833,357.5 373.167,357.5 371.5,357.5C 371.5,355.833 371.5,354.167 371.5,352.5C 369.473,352.338 367.473,352.505 365.5,353C 364.62,354.356 364.286,355.856 364.5,357.5C 358.491,357.334 352.491,357.501 346.5,358C 345.584,358.374 344.75,358.874 344,359.5C 343.297,361.78 342.131,363.78 340.5,365.5C 338.602,366.734 336.935,366.401 335.5,364.5C 330.813,367.376 326.813,370.043 323.5,372.5C 323.351,376.123 322.184,376.457 320,373.5C 318.56,374.148 317.06,374.481 315.5,374.5C 315.5,375.5 315.5,376.5 315.5,377.5C 313.194,377.993 310.861,378.326 308.5,378.5C 329.995,365.197 351.662,352.03 373.5,339C 375.641,337.692 377.641,336.192 379.5,334.5C 379.145,333.478 378.478,332.811 377.5,332.5C 376.833,332.167 376.167,331.833 375.5,331.5C 368.213,327.528 361.213,323.195 354.5,318.5C 356.167,318.5 357.833,318.5 359.5,318.5C 359.5,317.5 359.5,316.5 359.5,315.5C 361.167,315.5 362.833,315.5 364.5,315.5C 363.045,322.956 366.045,326.623 373.5,326.5C 375.931,327.36 377.264,329.027 377.5,331.5C 378.5,331.5 379.5,331.5 380.5,331.5C 380.177,327.774 380.511,324.107 381.5,320.5C 382.466,322.396 382.799,324.396 382.5,326.5C 385.167,326.5 387.833,326.5 390.5,326.5C 390.5,322.5 390.5,318.5 390.5,314.5C 394.673,313.956 398.506,314.623 402,316.5C 402.333,316.167 402.667,315.833 403,315.5C 403.333,316.833 403.667,318.167 404,319.5C 404.416,317.45 405.583,316.116 407.5,315.5 Z"/></g>
<g><path style="opacity:1" fill="#87a683" d="M 64.5,332.5 C 66.5,332.5 68.5,332.5 70.5,332.5C 137.17,332.167 203.837,332.5 270.5,333.5C 270.376,334.107 270.043,334.44 269.5,334.5C 201.669,333.501 133.669,333.167 65.5,333.5C 64.8333,333.5 64.5,333.167 64.5,332.5 Z"/></g>
<g><path style="opacity:1" fill="#173328" d="M 65.5,333.5 C 133.669,333.167 201.669,333.501 269.5,334.5C 268.833,334.833 268.167,335.167 267.5,335.5C 200.167,334.833 132.833,334.167 65.5,333.5 Z"/></g>
<g><path style="opacity:1" fill="#1a4d1f" d="M 413.5,328.5 C 413.969,331.393 412.969,333.393 410.5,334.5C 410.992,332.181 411.992,330.181 413.5,328.5 Z"/></g>
<g><path style="opacity:1" fill="#f1faf5" d="M 99.5,323.5 C 97.4417,325.242 95.7751,327.409 94.5,330C 93.5,330.333 92.5,330.667 91.5,331C 151.503,331.167 211.503,331.667 271.5,332.5C 289.534,333.179 307.534,333.846 325.5,334.5C 342.487,334.185 359.154,333.185 375.5,331.5C 376.167,331.833 376.833,332.167 377.5,332.5C 373.273,334.28 368.606,335.114 363.5,335C 345.311,344.668 326.977,354.168 308.5,363.5C 307.833,359.353 307.166,355.353 306.5,351.5C 231.669,350.501 156.669,350.167 81.5,350.5C 81.5,348.167 81.5,345.833 81.5,343.5C 78.1667,343.5 74.8333,343.5 71.5,343.5C 131.763,342.665 192.763,342.165 254.5,342C 259.368,340.67 263.701,338.504 267.5,335.5C 268.167,335.167 268.833,334.833 269.5,334.5C 270.043,334.44 270.376,334.107 270.5,333.5C 203.837,332.5 137.17,332.167 70.5,332.5C 70.5,329.5 70.5,326.5 70.5,323.5C 80.1667,323.5 89.8333,323.5 99.5,323.5 Z"/></g>
<g><path style="opacity:1" fill="#afd3ba" d="M 377.5,332.5 C 378.478,332.811 379.145,333.478 379.5,334.5C 377.641,336.192 375.641,337.692 373.5,339C 351.662,352.03 329.995,365.197 308.5,378.5C 306.529,369.895 305.862,360.895 306.5,351.5C 307.166,355.353 307.833,359.353 308.5,363.5C 326.977,354.168 345.311,344.668 363.5,335C 368.606,335.114 373.273,334.28 377.5,332.5 Z"/></g>
<g><path style="opacity:1" fill="#439628" d="M 399.5,333.5 C 400.568,335.74 402.234,337.574 404.5,339C 405.448,339.483 406.448,339.649 407.5,339.5C 405.853,342.473 403.853,345.14 401.5,347.5C 399.738,347.643 398.071,347.309 396.5,346.5C 395.795,343.911 395.795,341.244 396.5,338.5C 396.953,336.435 397.953,334.768 399.5,333.5 Z"/></g>
<g><path style="opacity:1" fill="#bfd3d6" d="M 71.5,343.5 C 74.8333,343.5 78.1667,343.5 81.5,343.5C 81.5,345.833 81.5,348.167 81.5,350.5C 156.669,350.167 231.669,350.501 306.5,351.5C 229.499,351.667 152.499,351.5 75.5,351C 74.0142,348.525 72.6808,346.025 71.5,343.5 Z"/></g>
<g><path style="opacity:1" fill="#f7fafa" d="M 222.5,365.5 C 224.752,365.916 226.252,367.249 227,369.5C 227.634,372.555 227.468,375.555 226.5,378.5C 225.5,379.167 224.5,379.833 223.5,380.5C 222.001,379.322 221.001,377.655 220.5,375.5C 209.342,369.647 210.009,366.314 222.5,365.5 Z"/></g>
<g><path style="opacity:1" fill="#113628" d="M 210.5,366.5 C 210.5,367.167 210.5,367.833 210.5,368.5C 174.5,368.5 138.5,368.5 102.5,368.5C 98.1667,368.5 93.8333,368.5 89.5,368.5C 89.2627,369.791 89.596,370.791 90.5,371.5C 91.8333,372.167 92.8333,373.167 93.5,374.5C 89.4098,373.998 87.4098,371.665 87.5,367.5C 128.491,366.586 169.491,366.252 210.5,366.5 Z"/></g>
<g><path style="opacity:1" fill="#3f8c31" d="M 102.5,368.5 C 98.2325,368.869 94.2325,369.869 90.5,371.5C 89.596,370.791 89.2627,369.791 89.5,368.5C 93.8333,368.5 98.1667,368.5 102.5,368.5 Z"/></g>
<g><path style="opacity:1" fill="#4eaf20" d="M 102.5,368.5 C 138.5,368.5 174.5,368.5 210.5,368.5C 210.5,371.5 210.5,374.5 210.5,377.5C 172.094,377.827 133.761,377.494 95.5,376.5C 95.1667,375.5 94.5,374.833 93.5,374.5C 92.8333,373.167 91.8333,372.167 90.5,371.5C 94.2325,369.869 98.2325,368.869 102.5,368.5 Z"/></g>
<g><path style="opacity:1" fill="#102c3a" d="M 419.5,318.5 C 420.774,319.189 420.774,320.023 419.5,321C 420.308,321.308 420.975,321.808 421.5,322.5C 420.439,326.028 421.106,329.195 423.5,332C 421.866,332.494 420.199,332.66 418.5,332.5C 418.5,333.5 418.5,334.5 418.5,335.5C 417.5,335.5 416.5,335.5 415.5,335.5C 415.5,336.5 415.5,337.5 415.5,338.5C 417.167,338.5 418.833,338.5 420.5,338.5C 420.337,340.857 420.503,343.19 421,345.5C 422.209,342.293 423.209,338.959 424,335.5C 425.299,335.034 426.799,335.034 428.5,335.5C 428.285,333.821 428.952,332.821 430.5,332.5C 400.219,394.774 351.552,434.774 284.5,452.5C 280.476,453.038 276.476,453.705 272.5,454.5C 272.918,453.778 273.584,453.278 274.5,453C 273.316,451.82 272.649,450.32 272.5,448.5C 272.381,444.789 274.048,442.289 277.5,441C 275.527,440.505 273.527,440.338 271.5,440.5C 271.5,440.167 271.5,439.833 271.5,439.5C 274.518,439.665 277.518,439.498 280.5,439C 283.084,438.14 285.417,436.973 287.5,435.5C 289.167,434.833 290.833,434.167 292.5,433.5C 294.565,433.483 296.565,433.15 298.5,432.5C 301.716,432.655 304.383,431.655 306.5,429.5C 307.167,428.833 307.833,428.167 308.5,427.5C 311.346,427.448 313.68,426.448 315.5,424.5C 321.275,421.893 326.942,419.06 332.5,416C 343.198,408.986 353.532,401.486 363.5,393.5C 364.239,393.631 364.906,393.464 365.5,393C 372.096,386.91 378.096,380.41 383.5,373.5C 386.434,369.725 389.601,366.058 393,362.5C 396.057,357.614 398.89,352.614 401.5,347.5C 403.853,345.14 405.853,342.473 407.5,339.5C 408.263,337.632 409.263,335.965 410.5,334.5C 412.969,333.393 413.969,331.393 413.5,328.5C 414.376,328.631 415.043,328.298 415.5,327.5C 417.096,324.498 418.43,321.498 419.5,318.5 Z"/></g>
<g><path style="opacity:1" fill="#d8e8e5" d="M 222.5,365.5 C 210.009,366.314 209.342,369.647 220.5,375.5C 221.001,377.655 222.001,379.322 223.5,380.5C 223.389,381.117 223.056,381.617 222.5,382C 219.854,382.497 217.187,382.664 214.5,382.5C 213.5,380.833 212.167,379.5 210.5,378.5C 210.5,378.167 210.5,377.833 210.5,377.5C 210.5,374.5 210.5,371.5 210.5,368.5C 210.5,367.833 210.5,367.167 210.5,366.5C 212.817,365.093 215.317,364.093 218,363.5C 219.876,363.525 221.376,364.191 222.5,365.5 Z"/></g>
<g><path style="opacity:1" fill="#66e916" d="M 104.5,369.5 C 139.5,369.5 174.5,369.5 209.5,369.5C 209.5,371.833 209.5,374.167 209.5,376.5C 174.136,376.814 138.802,376.48 103.5,375.5C 103.325,373.379 103.659,371.379 104.5,369.5 Z"/></g>
<g><path style="opacity:1" fill="#6afe00" d="M 125.5,370.5 C 153.167,370.5 180.833,370.5 208.5,370.5C 208.5,372.167 208.5,373.833 208.5,375.5C 180.833,375.5 153.167,375.5 125.5,375.5C 125.5,373.833 125.5,372.167 125.5,370.5 Z"/></g>
<g><path style="opacity:1" fill="#0a341f" d="M 95.5,376.5 C 133.761,377.494 172.094,377.827 210.5,377.5C 210.5,377.833 210.5,378.167 210.5,378.5C 171.819,379.161 133.485,378.494 95.5,376.5 Z"/></g>
<g><path style="opacity:1" fill="#133e33" d="M 383.5,373.5 C 378.096,380.41 372.096,386.91 365.5,393C 364.906,393.464 364.239,393.631 363.5,393.5C 369.806,386.527 376.473,379.86 383.5,373.5 Z"/></g>
<g><path style="opacity:1" fill="#0f3234" d="M 226.5,378.5 C 225.708,379.967 225.708,381.3 226.5,382.5C 228.776,381.798 231.109,381.965 233.5,383C 232.376,383.249 231.376,383.749 230.5,384.5C 238.421,385.647 238.421,386.48 230.5,387C 243.833,387.333 257.167,387.667 270.5,388C 271.056,388.383 271.389,388.883 271.5,389.5C 268.236,388.676 264.902,388.342 261.5,388.5C 212.167,388.5 162.833,388.5 113.5,388.5C 111.143,388.337 108.81,388.503 106.5,389C 107.381,389.708 108.047,390.542 108.5,391.5C 105.756,390.928 104.923,389.262 106,386.5C 107.906,385.869 109.906,385.536 112,385.5C 148.157,386.631 184.324,386.798 220.5,386C 217.655,385.992 215.655,384.825 214.5,382.5C 217.187,382.664 219.854,382.497 222.5,382C 223.056,381.617 223.389,381.117 223.5,380.5C 224.5,379.833 225.5,379.167 226.5,378.5 Z"/></g>
<g><path style="opacity:1" fill="#3c7b3b" d="M 396.5,338.5 C 395.795,341.244 395.795,343.911 396.5,346.5C 398.071,347.309 399.738,347.643 401.5,347.5C 398.89,352.614 396.057,357.614 393,362.5C 389.601,366.058 386.434,369.725 383.5,373.5C 376.473,379.86 369.806,386.527 363.5,393.5C 353.532,401.486 343.198,408.986 332.5,416C 326.942,419.06 321.275,421.893 315.5,424.5C 316.72,422.718 317.386,420.718 317.5,418.5C 318.675,418.719 319.675,418.386 320.5,417.5C 320,417.167 319.5,416.833 319,416.5C 315.459,417.426 311.959,418.426 308.5,419.5C 332.008,407.669 352.675,392.002 370.5,372.5C 372.767,369.729 375.267,367.062 378,364.5C 384.445,355.908 390.612,347.241 396.5,338.5 Z"/></g>
<g><path style="opacity:1" fill="#3d7947" d="M 113.5,388.5 C 162.833,388.5 212.167,388.5 261.5,388.5C 261.027,389.906 260.027,390.573 258.5,390.5C 210.001,390.014 161.668,389.347 113.5,388.5 Z"/></g>
<g><path style="opacity:1" fill="#f0f7f4" d="M 311.5,405.5 C 312.109,402.122 310.776,400.122 307.5,399.5C 308.301,397.958 308.634,396.292 308.5,394.5C 312.684,386.162 317.851,385.495 324,392.5C 325.206,401.797 321.039,406.131 311.5,405.5 Z"/></g>
<g><path style="opacity:1" fill="#3e7e3a" d="M 113.5,388.5 C 161.668,389.347 210.001,390.014 258.5,390.5C 258.5,392.833 258.5,395.167 258.5,397.5C 210.428,397.828 162.428,397.495 114.5,396.5C 112.54,394.844 110.54,393.177 108.5,391.5C 108.047,390.542 107.381,389.708 106.5,389C 108.81,388.503 111.143,388.337 113.5,388.5 Z"/></g>
<g><path style="opacity:1" fill="#4eb512" d="M 261.5,388.5 C 264.902,388.342 268.236,388.676 271.5,389.5C 276.833,394.167 276.833,398.833 271.5,403.5C 268.813,403.664 266.146,403.497 263.5,403C 262.468,401.373 261.134,400.207 259.5,399.5C 259.167,398.833 258.833,398.167 258.5,397.5C 258.5,395.167 258.5,392.833 258.5,390.5C 260.027,390.573 261.027,389.906 261.5,388.5 Z"/></g>
<g><path style="opacity:1" fill="#123933" d="M 114.5,396.5 C 162.428,397.495 210.428,397.828 258.5,397.5C 258.833,398.167 259.167,398.833 259.5,399.5C 260.11,400.391 260.443,401.391 260.5,402.5C 258.952,402.179 258.285,401.179 258.5,399.5C 210.163,399.24 162.163,398.24 114.5,396.5 Z"/></g>
<g><path style="opacity:1" fill="#8ee4a9" d="M 307.5,399.5 C 310.776,400.122 312.109,402.122 311.5,405.5C 310.395,406.6 309.062,407.267 307.5,407.5C 307.5,405.833 307.5,404.167 307.5,402.5C 305.833,402.5 304.167,402.5 302.5,402.5C 303.965,401.263 305.632,400.263 307.5,399.5 Z"/></g>
<g><path style="opacity:1" fill="#3a8231" d="M 259.5,399.5 C 261.134,400.207 262.468,401.373 263.5,403C 266.146,403.497 268.813,403.664 271.5,403.5C 267.717,405.007 264.05,404.673 260.5,402.5C 260.443,401.391 260.11,400.391 259.5,399.5 Z"/></g>
<g><path style="opacity:1" fill="#194238" d="M 308.5,394.5 C 308.634,396.292 308.301,397.958 307.5,399.5C 305.632,400.263 303.965,401.263 302.5,402.5C 297.765,404.539 293.099,406.539 288.5,408.5C 236.833,408.5 185.167,408.5 133.5,408.5C 183.332,407.667 233.332,407.167 283.5,407C 285.5,406.667 287.5,406.333 289.5,406C 290.337,404.989 290.67,403.822 290.5,402.5C 296.155,402.332 301.488,400.999 306.5,398.5C 306.157,396.517 306.824,395.183 308.5,394.5 Z"/></g>
<g><path style="opacity:1" fill="#7cce9b" d="M 133.5,408.5 C 185.167,408.5 236.833,408.5 288.5,408.5C 278.681,409.494 268.681,409.827 258.5,409.5C 218.165,409.333 177.832,409.5 137.5,410C 138.056,410.383 138.389,410.883 138.5,411.5C 136.326,411.25 134.659,410.25 133.5,408.5 Z"/></g>
<g><path style="opacity:1" fill="#87f1a1" d="M 258.5,409.5 C 253.436,410.52 248.436,412.02 243.5,414C 244.623,415.044 245.956,415.71 247.5,416C 259.447,417.391 271.447,417.891 283.5,417.5C 283.5,417.833 283.5,418.167 283.5,418.5C 237.997,418.832 192.664,418.499 147.5,417.5C 162.522,417.666 177.522,417.166 192.5,416C 191.328,415.581 190.328,414.915 189.5,414C 194.769,412.894 200.103,412.227 205.5,412C 184.522,410.491 163.522,410.157 142.5,411C 143.267,412.47 143.933,413.97 144.5,415.5C 142.938,415.267 141.605,414.6 140.5,413.5C 139.5,413.167 138.833,412.5 138.5,411.5C 138.389,410.883 138.056,410.383 137.5,410C 177.832,409.5 218.165,409.333 258.5,409.5 Z"/></g>
<g><path style="opacity:1" fill="#7ff78f" d="M 302.5,402.5 C 304.167,402.5 305.833,402.5 307.5,402.5C 307.5,404.167 307.5,405.833 307.5,407.5C 300.515,412.949 292.515,416.282 283.5,417.5C 271.447,417.891 259.447,417.391 247.5,416C 245.956,415.71 244.623,415.044 243.5,414C 248.436,412.02 253.436,410.52 258.5,409.5C 268.681,409.827 278.681,409.494 288.5,408.5C 293.099,406.539 297.765,404.539 302.5,402.5 Z"/></g>
<g><path style="opacity:1" fill="#83f793" d="M 147.5,417.5 C 146.29,417.068 145.29,416.401 144.5,415.5C 143.933,413.97 143.267,412.47 142.5,411C 163.522,410.157 184.522,410.491 205.5,412C 200.103,412.227 194.769,412.894 189.5,414C 190.328,414.915 191.328,415.581 192.5,416C 177.522,417.166 162.522,417.666 147.5,417.5 Z"/></g>
<g><path style="opacity:1" fill="#1d4541" d="M 140.5,413.5 C 141.605,414.6 142.938,415.267 144.5,415.5C 145.29,416.401 146.29,417.068 147.5,417.5C 192.664,418.499 237.997,418.832 283.5,418.5C 283.389,419.117 283.056,419.617 282.5,420C 237.5,420.667 192.5,420.667 147.5,420C 146.284,418.26 144.618,417.26 142.5,417C 141.177,416.184 140.511,415.017 140.5,413.5 Z"/></g>
<g><path style="opacity:1" fill="#419627" d="M 315.5,424.5 C 313.68,426.448 311.346,427.448 308.5,427.5C 311.54,426.266 312.873,423.932 312.5,420.5C 310.167,420.5 307.833,420.5 305.5,420.5C 306.209,419.596 307.209,419.263 308.5,419.5C 311.959,418.426 315.459,417.426 319,416.5C 319.5,416.833 320,417.167 320.5,417.5C 319.675,418.386 318.675,418.719 317.5,418.5C 317.386,420.718 316.72,422.718 315.5,424.5 Z"/></g>
<g><path style="opacity:1" fill="#4db118" d="M 305.5,420.5 C 307.833,420.5 310.167,420.5 312.5,420.5C 312.873,423.932 311.54,426.266 308.5,427.5C 307.833,428.167 307.167,428.833 306.5,429.5C 305.167,429.833 303.833,430.167 302.5,430.5C 304.727,428.771 305.727,426.438 305.5,423.5C 302.482,423.704 299.482,424.037 296.5,424.5C 299.433,423.017 302.433,421.683 305.5,420.5 Z"/></g>
<g><path style="opacity:1" fill="#0d3619" d="M 289.5,425.5 C 286.5,426.833 283.5,428.167 280.5,429.5C 279.5,429.5 278.5,429.5 277.5,429.5C 243.167,429.5 208.833,429.5 174.5,429.5C 208.002,428.833 241.669,428.167 275.5,427.5C 280.074,426.18 284.74,425.513 289.5,425.5 Z"/></g>
<g><path style="opacity:1" fill="#5bdb0a" d="M 302.5,430.5 C 300.62,430.229 299.287,430.896 298.5,432.5C 296.565,433.15 294.565,433.483 292.5,433.5C 293.183,431.824 294.517,431.157 296.5,431.5C 296.785,429.712 296.452,428.045 295.5,426.5C 290.455,427.41 285.455,428.41 280.5,429.5C 283.5,428.167 286.5,426.833 289.5,425.5C 291.903,425.552 294.236,425.219 296.5,424.5C 299.482,424.037 302.482,423.704 305.5,423.5C 305.727,426.438 304.727,428.771 302.5,430.5 Z"/></g>
<g><path style="opacity:1" fill="#5baf53" d="M 174.5,429.5 C 208.833,429.5 243.167,429.5 277.5,429.5C 276.432,430.434 275.099,430.768 273.5,430.5C 249.833,430.5 226.167,430.5 202.5,430.5C 193.983,430.174 185.65,430.507 177.5,431.5C 175.378,431.374 174.378,430.707 174.5,429.5 Z"/></g>
<g><path style="opacity:1" fill="#67fa13" d="M 292.5,433.5 C 290.833,434.167 289.167,434.833 287.5,435.5C 284.198,436.294 280.865,436.96 277.5,437.5C 271.167,437.5 264.833,437.5 258.5,437.5C 258.5,436.5 258.5,435.5 258.5,434.5C 260.5,434.5 262.5,434.5 264.5,434.5C 264.5,433.5 264.5,432.5 264.5,431.5C 267.713,431.81 270.713,431.477 273.5,430.5C 275.099,430.768 276.432,430.434 277.5,429.5C 278.5,429.5 279.5,429.5 280.5,429.5C 285.455,428.41 290.455,427.41 295.5,426.5C 296.452,428.045 296.785,429.712 296.5,431.5C 294.517,431.157 293.183,431.824 292.5,433.5 Z"/></g>
<g><path style="opacity:1" fill="#15451d" d="M 306.5,429.5 C 304.383,431.655 301.716,432.655 298.5,432.5C 299.287,430.896 300.62,430.229 302.5,430.5C 303.833,430.167 305.167,429.833 306.5,429.5 Z"/></g>
<g><path style="opacity:1" fill="#77f36b" d="M 202.5,430.5 C 200.369,431.314 198.036,431.814 195.5,432C 196.38,433.356 196.714,434.856 196.5,436.5C 195.167,436.5 193.833,436.5 192.5,436.5C 188.776,434.653 184.776,433.32 180.5,432.5C 179.209,432.737 178.209,432.404 177.5,431.5C 185.65,430.507 193.983,430.174 202.5,430.5 Z"/></g>
<g><path style="opacity:1" fill="#6cfc4d" d="M 202.5,430.5 C 226.167,430.5 249.833,430.5 273.5,430.5C 270.713,431.477 267.713,431.81 264.5,431.5C 264.5,432.5 264.5,433.5 264.5,434.5C 262.5,434.5 260.5,434.5 258.5,434.5C 258.5,435.5 258.5,436.5 258.5,437.5C 264.833,437.5 271.167,437.5 277.5,437.5C 275.735,438.461 273.735,438.795 271.5,438.5C 250.497,438.667 229.497,438.5 208.5,438C 204.974,436.663 201.308,436.163 197.5,436.5C 197.167,436.5 196.833,436.5 196.5,436.5C 196.714,434.856 196.38,433.356 195.5,432C 198.036,431.814 200.369,431.314 202.5,430.5 Z"/></g>
<g><path style="opacity:1" fill="#153e31" d="M 180.5,432.5 C 184.776,433.32 188.776,434.653 192.5,436.5C 187.648,437.259 183.648,435.926 180.5,432.5 Z"/></g>
<g><path style="opacity:1" fill="#6bdf56" d="M 197.5,436.5 C 201.308,436.163 204.974,436.663 208.5,438C 229.497,438.5 250.497,438.667 271.5,438.5C 271.5,438.833 271.5,439.167 271.5,439.5C 250.164,439.667 228.831,439.5 207.5,439C 203.91,438.689 200.577,437.856 197.5,436.5 Z"/></g>
<g><path style="opacity:1" fill="#184825" d="M 287.5,435.5 C 285.417,436.973 283.084,438.14 280.5,439C 277.518,439.498 274.518,439.665 271.5,439.5C 271.5,439.167 271.5,438.833 271.5,438.5C 273.735,438.795 275.735,438.461 277.5,437.5C 280.865,436.96 284.198,436.294 287.5,435.5 Z"/></g>
<g><path style="opacity:1" fill="#19462c" d="M 192.5,436.5 C 193.833,436.5 195.167,436.5 196.5,436.5C 196.833,436.5 197.167,436.5 197.5,436.5C 200.577,437.856 203.91,438.689 207.5,439C 228.831,439.5 250.164,439.667 271.5,439.5C 271.5,439.833 271.5,440.167 271.5,440.5C 245.458,442.163 219.458,441.663 193.5,439C 192.748,438.329 192.414,437.496 192.5,436.5 Z"/></g>
<g><path style="opacity:1" fill="#5f726b" d="M 284.5,452.5 C 280.837,454.416 276.837,455.416 272.5,455.5C 272.5,455.167 272.5,454.833 272.5,454.5C 276.476,453.705 280.476,453.038 284.5,452.5 Z"/></g>
</svg>
